<svg width="100" height="100" viewBox="0 0 100 100" fill="none" xmlns="http://www.w3.org/2000/svg">
<path fill-rule="evenodd" clip-rule="evenodd" d="M75.7315 45.7322C76.2003 45.2634 76.8362 45 77.4993 45C78.1623 45 78.7982 45.2634 79.267 45.7322C79.7359 46.2011 79.9993 46.837 79.9993 47.5V87.5C79.9993 88.163 79.7359 88.7989 79.267 89.2678C78.7982 89.7366 78.1623 90 77.4993 90C76.8362 90 76.2003 89.7366 75.7315 89.2678C75.2626 88.7989 74.9993 88.163 74.9993 87.5V47.5C74.9993 46.837 75.2626 46.2011 75.7315 45.7322ZM35.7315 55.7322C36.2003 55.2634 36.8362 55 37.4993 55C38.1623 55 38.7982 55.2634 39.267 55.7322C39.7359 56.2011 39.9993 56.837 39.9993 57.5V87.5C39.9993 88.163 39.7359 88.7989 39.267 89.2678C38.7982 89.7366 38.1623 90 37.4993 90C36.8362 90 36.2003 89.7366 35.7315 89.2678C35.2626 88.7989 34.9993 88.163 34.9993 87.5V57.5C34.9993 56.837 35.2626 56.2011 35.7315 55.7322ZM55.7315 65.7322C55.2626 66.2011 54.9993 66.837 54.9993 67.5V87.5C54.9993 88.163 55.2626 88.7989 55.7315 89.2678C56.2003 89.7366 56.8362 90 57.4993 90C58.1623 90 58.7982 89.7366 59.267 89.2678C59.7359 88.7989 59.9993 88.163 59.9993 87.5V67.5C59.9993 66.837 59.7359 66.2011 59.267 65.7322C58.7982 65.2634 58.1623 65 57.4993 65C56.8362 65 56.2003 65.2634 55.7315 65.7322ZM15.7315 70.7322C15.2626 71.2011 14.9993 71.837 14.9993 72.5V87.5C14.9993 88.163 15.2626 88.7989 15.7315 89.2678C16.2003 89.7366 16.8362 90 17.4993 90C18.1623 90 18.7982 89.7366 19.267 89.2678C19.7359 88.7989 19.9993 88.163 19.9993 87.5V72.5C19.9993 71.837 19.7359 71.2011 19.267 70.7322C18.7982 70.2634 18.1623 70 17.4993 70C16.8362 70 16.2003 70.2634 15.7315 70.7322Z" fill="#FFD300"/>
<path d="M72.4993 10C71.8362 10 71.2003 10.2634 70.7315 10.7322C70.2626 11.2011 69.9993 11.837 69.9993 12.5C69.9993 13.163 70.2626 13.7989 70.7315 14.2678C71.2003 14.7366 71.8362 15 72.4993 15H81.4642L57.4993 38.965L44.2693 25.73C44.037 25.4972 43.7611 25.3125 43.4574 25.1864C43.1537 25.0604 42.8281 24.9955 42.4993 24.9955C42.1704 24.9955 41.8448 25.0604 41.5411 25.1864C41.2374 25.3125 40.9615 25.4972 40.7292 25.73L15.7293 50.73C15.2598 51.1994 14.9961 51.8361 14.9961 52.5C14.9961 53.1639 15.2598 53.8006 15.7293 54.27C16.1987 54.7394 16.8354 55.0032 17.4993 55.0032C18.1631 55.0032 18.7998 54.7394 19.2693 54.27L42.4993 31.035L55.7292 44.27C55.9615 44.5028 56.2374 44.6875 56.5411 44.8136C56.8448 44.9396 57.1704 45.0045 57.4993 45.0045C57.8281 45.0045 58.1537 44.9396 58.4574 44.8136C58.7611 44.6875 59.037 44.5028 59.2692 44.27L84.9993 18.535V27.5C84.9993 28.163 85.2626 28.7989 85.7315 29.2678C86.2003 29.7366 86.8362 30 87.4993 30C88.1623 30 88.7982 29.7366 89.267 29.2678C89.7359 28.7989 89.9993 28.163 89.9993 27.5V12.5C89.9993 11.837 89.7359 11.2011 89.267 10.7322C88.7982 10.2634 88.1623 10 87.4993 10H72.4993Z" fill="#474A4F"/>
</svg>
