<svg width="277" height="277" viewBox="0 0 277 277" fill="none" xmlns="http://www.w3.org/2000/svg">
<g opacity="0.05">
<path d="M200.827 27.6992C198.99 27.6992 197.229 28.4288 195.93 29.7275C194.631 31.0262 193.902 32.7876 193.902 34.6242C193.902 36.4608 194.631 38.2222 195.93 39.5209C197.229 40.8196 198.99 41.5492 200.827 41.5492H225.66L159.277 107.932L122.63 71.2713C121.986 70.6264 121.222 70.1148 120.381 69.7656C119.54 69.4165 118.638 69.2368 117.727 69.2368C116.816 69.2368 115.914 69.4165 115.073 69.7656C114.231 70.1148 113.467 70.6264 112.824 71.2713L43.5738 140.521C42.2735 141.822 41.543 143.585 41.543 145.424C41.543 147.263 42.2735 149.027 43.5738 150.327C44.8741 151.627 46.6378 152.358 48.4767 152.358C50.3157 152.358 52.0793 151.627 53.3796 150.327L117.727 85.9662L154.374 122.627C155.017 123.272 155.781 123.784 156.623 124.133C157.464 124.482 158.366 124.662 159.277 124.662C160.188 124.662 161.09 124.482 161.931 124.133C162.772 123.784 163.536 123.272 164.18 122.627L235.452 51.3412V76.1742C235.452 78.0108 236.181 79.7722 237.48 81.0709C238.779 82.3696 240.54 83.0992 242.377 83.0992C244.213 83.0992 245.975 82.3696 247.273 81.0709C248.572 79.7722 249.302 78.0108 249.302 76.1742V34.6242C249.302 32.7876 248.572 31.0262 247.273 29.7275C245.975 28.4288 244.213 27.6992 242.377 27.6992H200.827ZM214.677 124.649C212.84 124.649 211.079 125.379 209.78 126.678C208.481 127.976 207.752 129.738 207.752 131.574V242.374C207.752 244.211 208.481 245.972 209.78 247.271C211.079 248.57 212.84 249.299 214.677 249.299C216.513 249.299 218.275 248.57 219.573 247.271C220.872 245.972 221.602 244.211 221.602 242.374V131.574C221.602 129.738 220.872 127.976 219.573 126.678C218.275 125.379 216.513 124.649 214.677 124.649ZM103.877 152.349C102.04 152.349 100.279 153.079 98.98 154.378C97.6813 155.676 96.9517 157.438 96.9517 159.274V242.374C96.9517 244.211 97.6813 245.972 98.98 247.271C100.279 248.57 102.04 249.299 103.877 249.299C105.713 249.299 107.475 248.57 108.773 247.271C110.072 245.972 110.802 244.211 110.802 242.374V159.274C110.802 157.438 110.072 155.676 108.773 154.378C107.475 153.079 105.713 152.349 103.877 152.349ZM152.352 186.974C152.352 185.138 153.081 183.376 154.38 182.077C155.679 180.779 157.44 180.049 159.277 180.049C161.113 180.049 162.875 180.779 164.173 182.077C165.472 183.376 166.202 185.138 166.202 186.974V242.374C166.202 244.211 165.472 245.972 164.173 247.271C162.875 248.57 161.113 249.299 159.277 249.299C157.44 249.299 155.679 248.57 154.38 247.271C153.081 245.972 152.352 244.211 152.352 242.374V186.974ZM41.5517 200.824C41.5517 198.988 42.2813 197.226 43.58 195.928C44.8787 194.629 46.6401 193.899 48.4767 193.899C50.3133 193.899 52.0747 194.629 53.3734 195.928C54.6721 197.226 55.4017 198.988 55.4017 200.824V242.374C55.4017 244.211 54.6721 245.972 53.3734 247.271C52.0747 248.57 50.3133 249.299 48.4767 249.299C46.6401 249.299 44.8787 248.57 43.58 247.271C42.2813 245.972 41.5517 244.211 41.5517 242.374V200.824Z" fill="black"/>
</g>
</svg>
