<svg width="151" height="151" viewBox="0 0 151 151" fill="none" xmlns="http://www.w3.org/2000/svg">
<path d="M69.0825 11.3154L18.9977 42.6007H14.1562C11.5609 42.6007 9.4375 44.7241 9.4375 47.3195C9.4375 49.9148 11.5609 52.0335 14.1515 52.0382V61.4757C11.5562 61.4757 9.4375 63.5991 9.4375 66.1945C9.4375 68.7898 11.5609 70.9132 14.1562 70.9132H18.875V118.101C17.5689 118.15 16.3326 118.703 15.4262 119.645C14.5197 120.586 14.0138 121.843 14.0147 123.15V127.538H14.4866C11.7025 127.538 9.4375 129.803 9.4375 132.587V136.976H141.515V132.587C141.515 129.803 139.25 127.538 136.466 127.538H136.844V123.15C136.844 121.868 136.357 120.633 135.48 119.697C134.604 118.762 133.404 118.194 132.125 118.11V70.9085H136.844C139.439 70.9085 141.562 68.7851 141.562 66.1897C141.562 63.5944 139.439 61.471 136.844 61.471L136.839 52.0335C139.434 52.0335 141.562 49.9101 141.562 47.3147C141.562 44.7194 139.439 42.596 136.844 42.596H132.191L82.1062 11.3154C78.1425 8.81446 73.0463 8.81446 69.0825 11.3154ZM73.1406 49.962V47.4138C72.4411 47.3208 71.7581 47.1302 71.1116 46.8476C69.7903 46.3757 68.705 45.5263 67.8556 44.3938C67.5835 44.009 67.4503 43.5431 67.4781 43.0726C67.4781 42.909 67.4939 42.7517 67.5253 42.6007C67.6647 42.0205 68.0188 41.5147 68.5163 41.1851C69.5072 40.5716 70.5925 40.7132 71.4891 41.6098C71.9628 42.1256 72.5214 42.5565 73.1406 42.8838C73.1658 42.9059 73.1973 42.9216 73.235 42.931H73.2539C74.0218 43.267 74.8505 43.4421 75.6888 43.4454C76.9817 43.3887 77.4488 42.9829 77.6234 42.596C77.7178 42.3789 77.7178 42.1713 77.7178 42.0297C77.7178 41.605 77.5291 41.2747 77.1044 41.0388C76.5853 40.7557 75.6888 40.4254 74.5563 40.1422C74.0808 40.013 73.6087 39.8714 73.1406 39.7176L72.6687 39.5571C72.2326 39.423 71.8068 39.2574 71.3947 39.0616C70.4981 38.6841 69.7431 38.1179 69.1297 37.3157C68.4691 36.5135 68.1387 35.4754 68.1387 34.1541C68.1387 32.9745 68.4691 31.9835 69.1769 31.087C69.7903 30.2376 70.6397 29.6241 71.725 29.1523C72.1969 28.9635 72.6687 28.7748 73.1406 28.6804V25.8492C73.1406 24.7167 74.0844 23.7257 75.2641 23.7257H75.5944C76.7741 23.7257 77.7178 24.7167 77.7178 25.8492V28.8691C77.9443 28.9022 78.1425 28.973 78.3501 29.0437L78.52 29.1051C79.6997 29.577 80.6906 30.2376 81.3512 31.1341C81.7287 31.5588 81.8703 32.0779 81.8703 32.597C81.8703 33.2576 81.6344 33.8238 81.0681 34.2485C80.2187 34.9563 78.8975 34.862 78.1425 34.107C78.0086 33.9727 77.8668 33.8466 77.7178 33.7295C77.4573 33.4518 77.1335 33.2414 76.7741 33.116C76.1855 32.837 75.5372 32.7074 74.8866 32.7385C73.8484 32.7385 73.3766 32.9745 73.1406 33.2576C72.9519 33.4935 72.9519 33.7766 72.9519 33.9654C72.9519 34.2013 72.9991 34.4373 73.1406 34.626C73.1406 34.6732 73.1878 34.7204 73.235 34.7676C73.5181 35.0035 73.8012 35.1923 74.2259 35.3338C74.6506 35.4754 75.3112 35.6641 76.1606 35.9001C76.5601 36.0291 76.9376 36.1439 77.2931 36.2446L77.7178 36.372C78.2841 36.5607 78.7559 36.7495 79.1806 36.9382C80.03 37.3629 80.785 37.9291 81.3512 38.7313C81.9647 39.5335 82.295 40.5717 82.295 41.8929C82.295 42.1288 82.2793 42.3648 82.2478 42.6007C82.1263 43.4822 81.7675 44.314 81.2097 45.0073C80.5205 45.8797 79.6071 46.5485 78.5672 46.942C78.2841 47.0835 78.0009 47.1779 77.7178 47.2251V49.962C77.7178 50.9765 76.9628 51.8353 75.953 52.0052H74.9054C74.4168 51.9272 73.9715 51.6788 73.6485 51.3039C73.3255 50.9291 73.1456 50.452 73.1406 49.9572M98.5653 42.596C99.4148 38.4482 99.1395 34.1487 97.7678 30.1432L117.822 42.596H98.5653ZM52.9302 30.483C51.6493 34.3934 51.4135 38.5709 52.246 42.6007H33.4182L52.9302 30.483ZM37.75 118.101H33.0312V70.9132H37.75V118.101ZM61.3438 118.101H51.9062V70.9132H99.0938V118.101H89.6562V88.0895C89.6562 86.4379 88.2878 85.0695 86.6363 85.0695H64.3166C62.665 85.0695 61.3438 86.3907 61.3438 88.0423V118.101ZM113.25 70.9132H117.969V118.101H113.25V70.9132Z" fill="black"/>
</svg>
