<svg width="151" height="151" viewBox="0 0 151 151" fill="none" xmlns="http://www.w3.org/2000/svg">
<path d="M122.688 61.3438C127.692 61.3375 132.489 59.3469 136.027 55.8085C139.566 52.2701 141.556 47.4728 141.562 42.4688V28.3125H127.406C122.575 28.3201 117.933 30.1893 114.444 33.5314C112.001 29.0946 108.412 25.3944 104.053 22.8165C99.6927 20.2386 94.7212 18.8775 89.6562 18.875H75.5V33.0312C75.5087 40.5375 78.4945 47.7338 83.8022 53.0416C89.1099 58.3493 96.3062 61.335 103.812 61.3438H108.531V122.688H51.9062V99.0938H56.625C61.629 99.0875 66.4263 97.0969 69.9647 93.5585C73.5031 90.0201 75.4938 85.2228 75.5 80.2188V66.0625H61.3438C56.5125 66.0701 51.87 67.9393 48.3813 71.2814C45.9384 66.8446 42.3499 63.1444 37.9901 60.5665C33.6302 57.9886 28.6587 56.6275 23.5938 56.625H9.4375V70.7812C9.44624 78.2875 12.432 85.4838 17.7397 90.7916C23.0474 96.0993 30.2437 99.085 37.75 99.0938H42.4688V122.688H9.4375V132.125H141.562V122.688H117.969V61.3438H122.688ZM117.969 47.1875C117.969 44.6845 118.963 42.2841 120.733 40.5142C122.503 38.7443 124.903 37.75 127.406 37.75H132.125V42.4688C132.125 44.9717 131.131 47.3722 129.361 49.1421C127.591 50.9119 125.19 51.9062 122.688 51.9062H117.969V47.1875ZM51.9062 84.9375C51.9062 82.4345 52.9006 80.0341 54.6704 78.2642C56.4403 76.4943 58.8408 75.5 61.3438 75.5H66.0625V80.2188C66.0625 82.7217 65.0682 85.1222 63.2983 86.8921C61.5284 88.6619 59.128 89.6562 56.625 89.6562H51.9062V84.9375ZM42.4688 89.6562H37.75C32.746 89.65 27.9487 87.6594 24.4103 84.121C20.8719 80.5826 18.8812 75.7853 18.875 70.7812V66.0625H23.5938C28.5978 66.0687 33.3951 68.0594 36.9335 71.5978C40.4719 75.1362 42.4625 79.9335 42.4688 84.9375V89.6562ZM108.531 51.9062H103.812C98.8085 51.9 94.0112 49.9094 90.4728 46.371C86.9344 42.8326 84.9437 38.0353 84.9375 33.0312V28.3125H89.6562C94.6603 28.3187 99.4576 30.3094 102.996 33.8478C106.534 37.3862 108.525 42.1835 108.531 47.1875V51.9062Z" fill="black"/>
</svg>
