<svg width="80" height="80" viewBox="0 0 80 80" fill="none" xmlns="http://www.w3.org/2000/svg">
<path d="M70 24.51V55.49C70.0002 55.8471 69.9047 56.1977 69.7236 56.5054C69.5425 56.8132 69.2823 57.0668 68.97 57.24L40.97 72.7933C40.6732 72.9579 40.3394 73.0443 40 73.0443C39.6606 73.0443 39.3268 72.9579 39.03 72.7933L11.03 57.24C10.7177 57.0668 10.4575 56.8132 10.2764 56.5054C10.0953 56.1977 9.99983 55.8471 10 55.49V24.51C10.0004 24.1535 10.0961 23.8035 10.2772 23.4964C10.4583 23.1893 10.7182 22.9362 11.03 22.7633L39.03 7.20666C39.3268 7.04206 39.6606 6.95569 40 6.95569C40.3394 6.95569 40.6732 7.04206 40.97 7.20666L68.97 22.7633C69.2818 22.9362 69.5417 23.1893 69.7228 23.4964C69.9039 23.8035 69.9996 24.1535 70 24.51Z" stroke="white" stroke-width="2" stroke-linecap="round" stroke-linejoin="round"/>
<path d="M11.7598 24.3133L39.0264 39.46C39.3236 39.6252 39.6581 39.7119 39.9981 39.7119C40.3381 39.7119 40.6726 39.6252 40.9698 39.46L68.3331 24.26M39.9998 70V40" stroke="white" stroke-width="2" stroke-linecap="round" stroke-linejoin="round"/>
</svg>
