<svg width="120" height="120" viewBox="0 0 120 120" fill="none" xmlns="http://www.w3.org/2000/svg">
<rect width="120" height="120" rx="60" fill="#F7F7F7"/>
<path d="M54.3065 46.816C56.8405 42.272 58.1065 40 60.0005 40C61.8945 40 63.1605 42.272 65.6945 46.816L66.3505 47.992C67.0705 49.284 67.4305 49.93 67.9905 50.356C68.5505 50.782 69.2505 50.94 70.6505 51.256L71.9225 51.544C76.8425 52.658 79.3005 53.214 79.8865 55.096C80.4705 56.976 78.7945 58.938 75.4405 62.86L74.5725 63.874C73.6205 64.988 73.1425 65.546 72.9285 66.234C72.7145 66.924 72.7865 67.668 72.9305 69.154L73.0625 70.508C73.5685 75.742 73.8225 78.358 72.2905 79.52C70.7585 80.682 68.4545 79.622 63.8505 77.502L62.6565 76.954C61.3485 76.35 60.6945 76.05 60.0005 76.05C59.3065 76.05 58.6525 76.35 57.3445 76.954L56.1525 77.502C51.5465 79.622 49.2425 80.682 47.7125 79.522C46.1785 78.358 46.4325 75.742 46.9385 70.508L47.0705 69.156C47.2145 67.668 47.2865 66.924 47.0705 66.236C46.8585 65.546 46.3805 64.988 45.4285 63.876L44.5605 62.86C41.2065 58.94 39.5305 56.978 40.1145 55.096C40.6985 53.214 43.1605 52.656 48.0805 51.544L49.3525 51.256C50.7505 50.94 51.4485 50.782 52.0105 50.356C52.5725 49.93 52.9305 49.284 53.6505 47.992L54.3065 46.816Z" stroke="#FFD300" stroke-width="3"/>
</svg>
