<svg width="120" height="120" viewBox="0 0 120 120" fill="none" xmlns="http://www.w3.org/2000/svg">
<rect width="120" height="120" rx="60" fill="#F7F7F7"/>
<path d="M47 71C43.9333 71 41.3333 69.9333 39.2 67.8C37.0667 65.6667 36 63.0667 36 60C36 56.9333 37.0667 54.3333 39.2 52.2C41.3333 50.0667 43.9333 49 47 49C48.2333 49 49.4167 49.2167 50.55 49.65C51.6833 50.0833 52.7 50.7 53.6 51.5L57 54.6L54 57.3L50.9 54.5C50.3667 54.0333 49.7667 53.6667 49.1 53.4C48.4333 53.1333 47.7333 53 47 53C45.0667 53 43.4167 53.6833 42.05 55.05C40.6833 56.4167 40 58.0667 40 60C40 61.9333 40.6833 63.5833 42.05 64.95C43.4167 66.3167 45.0667 67 47 67C47.7333 67 48.4333 66.8667 49.1 66.6C49.7667 66.3333 50.3667 65.9667 50.9 65.5L66.4 51.5C67.3 50.7 68.3167 50.0833 69.45 49.65C70.5833 49.2167 71.7667 49 73 49C76.0667 49 78.6667 50.0667 80.8 52.2C82.9333 54.3333 84 56.9333 84 60C84 63.0667 82.9333 65.6667 80.8 67.8C78.6667 69.9333 76.0667 71 73 71C71.7667 71 70.5833 70.7833 69.45 70.35C68.3167 69.9167 67.3 69.3 66.4 68.5L63 65.4L66 62.7L69.1 65.5C69.6333 65.9667 70.2333 66.3333 70.9 66.6C71.5667 66.8667 72.2667 67 73 67C74.9333 67 76.5833 66.3167 77.95 64.95C79.3167 63.5833 80 61.9333 80 60C80 58.0667 79.3167 56.4167 77.95 55.05C76.5833 53.6833 74.9333 53 73 53C72.2667 53 71.5667 53.1333 70.9 53.4C70.2333 53.6667 69.6333 54.0333 69.1 54.5L53.6 68.5C52.7 69.3 51.6833 69.9167 50.55 70.35C49.4167 70.7833 48.2333 71 47 71Z" fill="#A58C09"/>
</svg>
