<svg width="120" height="120" viewBox="0 0 120 120" fill="none" xmlns="http://www.w3.org/2000/svg">
<rect width="120" height="120" rx="60" fill="#F7F7F7"/>
<path d="M80.3178 54.3178C82.8178 51.8178 81.6778 48.8978 80.3178 47.4778L74.3178 41.4778C71.7978 38.9778 68.8978 40.1178 67.4778 41.4778L64.0778 44.8978H58.8978C55.0978 44.8978 52.8978 46.8978 51.7778 49.1978L42.8978 58.0778V66.0778L41.4778 67.4778C38.9778 69.9978 40.1178 72.8978 41.4778 74.3178L47.4778 80.3178C48.5578 81.3978 49.7178 81.7978 50.8178 81.7978C52.2378 81.7978 53.5378 81.0978 54.3178 80.3178L59.7178 74.8978H66.8978C70.2978 74.8978 72.0178 72.7778 72.6378 70.6978C74.8978 70.0978 76.1378 68.3778 76.6378 66.6978C79.7378 65.8978 80.8978 62.9578 80.8978 60.8978V54.8978H79.7178L80.3178 54.3178ZM76.8978 60.8978C76.8978 61.7978 76.5178 62.8978 74.8978 62.8978H72.8978V64.8978C72.8978 65.7978 72.5178 66.8978 70.8978 66.8978H68.8978V68.8978C68.8978 69.7978 68.5178 70.8978 66.8978 70.8978H58.0778L51.5178 77.4578C50.8978 78.0378 50.5378 77.6978 50.3178 77.4778L44.3378 71.5178C43.7578 70.8978 44.0978 70.5378 44.3178 70.3178L46.8978 67.7178V59.7178L50.8978 55.7178V58.8978C50.8978 61.3178 52.4978 64.8978 56.8978 64.8978C61.2978 64.8978 62.8978 61.3178 62.8978 58.8978H76.8978V60.8978ZM77.4778 51.4778L74.0778 54.8978H58.8978V58.8978C58.8978 59.7978 58.5178 60.8978 56.8978 60.8978C55.2778 60.8978 54.8978 59.7978 54.8978 58.8978V52.8978C54.8978 51.9778 55.2378 48.8978 58.8978 48.8978H65.7178L70.2778 44.3378C70.8978 43.7578 71.2578 44.0978 71.4778 44.3178L77.4578 50.2778C78.0378 50.8978 77.6978 51.2578 77.4778 51.4778Z" fill="#FFD300"/>
</svg>
