<svg width="120" height="120" viewBox="0 0 120 120" fill="none" xmlns="http://www.w3.org/2000/svg">
<rect width="120" height="120" rx="60" fill="#F7F7F7"/>
<path d="M60 40C60.7507 40 61.4907 40.0407 62.22 40.122C62.4811 40.1509 62.7339 40.2309 62.964 40.3575C63.1942 40.4841 63.3971 40.6548 63.5613 40.8598C63.7255 41.0649 63.8476 41.3002 63.9209 41.5525C63.9941 41.8047 64.0169 42.0689 63.988 42.33C63.9591 42.5911 63.8791 42.8439 63.7525 43.074C63.6259 43.3042 63.4552 43.5071 63.2502 43.6713C63.0451 43.8355 62.8098 43.9576 62.5575 44.0309C62.3053 44.1041 62.0411 44.1269 61.78 44.098C58.4841 43.7293 55.155 44.3939 52.2534 45.9998C49.3517 47.6058 47.0207 50.0738 45.5829 53.0624C44.1452 56.051 43.6716 59.4125 44.2278 62.682C44.784 65.9515 46.3424 68.9674 48.6875 71.3125C51.0326 73.6576 54.0485 75.216 57.318 75.7722C60.5875 76.3284 63.949 75.8548 66.9376 74.4171C69.9262 72.9793 72.3942 70.6483 74.0002 67.7466C75.6061 64.845 76.2707 61.5159 75.902 58.22C75.8731 57.9589 75.8959 57.6947 75.9691 57.4425C76.0424 57.1902 76.1645 56.9549 76.3287 56.7498C76.6603 56.3358 77.1427 56.0703 77.67 56.012C78.1973 55.9537 78.7261 56.1071 79.1402 56.4387C79.3452 56.6029 79.5159 56.8058 79.6425 57.036C79.7691 57.2661 79.8491 57.5189 79.878 57.78C79.958 58.5093 79.9987 59.2493 80 60C80 71.046 71.046 80 60 80C48.954 80 40 71.046 40 60C40 48.954 48.954 40 60 40ZM59.936 51.754C60.0678 52.2674 59.9904 52.8122 59.7208 53.2686C59.4511 53.725 59.0113 54.0557 58.498 54.188C57.0877 54.5574 55.8601 55.4273 55.0441 56.6354C54.2281 57.8435 53.8795 59.3072 54.0634 60.7534C54.2473 62.1996 54.9511 63.5295 56.0435 64.4949C57.1358 65.4603 58.5422 65.9953 60 66C61.3306 66.0006 62.6237 65.5588 63.6758 64.7442C64.7279 63.9296 65.4793 62.7884 65.812 61.5C65.9538 60.9967 66.287 60.5689 66.7403 60.3083C67.1936 60.0478 67.7309 59.975 68.2372 60.1058C68.7435 60.2365 69.1784 60.5604 69.4488 61.0079C69.7193 61.4554 69.8037 61.991 69.684 62.5C69.0705 64.8519 67.6217 66.8999 65.6083 68.2615C63.5949 69.6232 61.1547 70.2052 58.7435 69.899C56.3323 69.5928 54.1151 68.4192 52.506 66.5975C50.897 64.7758 50.0061 62.4306 50 60C49.9997 57.7828 50.7362 55.6283 52.0938 53.8753C53.4515 52.1224 55.3532 50.8703 57.5 50.316C57.7544 50.2504 58.0192 50.2356 58.2793 50.2724C58.5394 50.3092 58.7897 50.3969 59.0159 50.5304C59.2421 50.6639 59.4398 50.8407 59.5976 51.0507C59.7555 51.2606 59.8705 51.4996 59.936 51.754ZM73.008 40.254C73.3731 40.4054 73.6851 40.6615 73.9047 40.99C74.1243 41.3186 74.2417 41.7048 74.242 42.1V45.76H77.9C78.2955 45.7601 78.6821 45.8774 79.0109 46.0972C79.3397 46.317 79.596 46.6293 79.7474 46.9947C79.8987 47.3601 79.9383 47.7622 79.8612 48.1501C79.784 48.538 79.5936 48.8943 79.314 49.174L72.24 56.24C71.865 56.6151 71.3564 56.8259 70.826 56.826H66L62.344 60.484C61.9687 60.8593 61.4597 61.0701 60.929 61.0701C60.3983 61.0701 59.8893 60.8593 59.514 60.484C59.1387 60.1087 58.9279 59.5997 58.9279 59.069C58.9279 58.5383 59.1387 58.0293 59.514 57.654L63.172 54V49.172C63.1721 48.6416 63.3829 48.133 63.758 47.758L70.828 40.686C71.1077 40.4061 71.4641 40.2155 71.8522 40.1383C72.2402 40.061 72.6425 40.1006 73.008 40.252M70.242 46.926L67.172 50V52.828H70L73.072 49.758H72.242C71.7116 49.758 71.2029 49.5473 70.8278 49.1722C70.4527 48.7971 70.242 48.2884 70.242 47.758V46.926Z" fill="#A58C09"/>
</svg>
