<svg width="120" height="120" viewBox="0 0 120 120" fill="none" xmlns="http://www.w3.org/2000/svg">
<rect width="120" height="120" rx="60" fill="#F7F7F7"/>
<path d="M53.2969 37.7773V37.8008C51.6 41.4223 49.0687 44.5845 46.0125 47.457L49.5469 47.082L44.7375 53.1852L47.0625 52.4445L43.9125 57.582L45.4594 58.5102L39.3375 67.1445L42.7219 67.1633L37.875 75.0008L43.8375 74.2414L44.9625 77.2508L51.1875 74.8789L50.1281 82.2289H55.0875L54.4781 75.8352L58.0594 77.3727L59.0156 75.0477L63.1687 77.0164L68.4562 75.0664L64.9781 69.057L63.8156 68.8414C64.2656 70.0039 64.725 71.157 65.1844 72.3195C62.9719 71.4477 60.75 70.5852 58.5375 69.7227V73.0789C55.9312 71.4852 53.3156 69.9195 50.7094 68.3352C49.4625 69.5445 48.2344 70.7727 46.9969 71.9914C47.1187 70.4352 47.2594 68.8695 47.4 67.3133L49.1062 67.4633C49.5562 67.0133 50.0062 66.5727 50.4562 66.132C52.575 67.3977 54.6844 68.6914 56.7937 69.9664V67.1633C58.5562 67.857 60.3188 68.5414 62.0812 69.2352C61.7344 68.3445 61.3781 67.4445 61.0312 66.5539C62.9719 66.9008 64.9031 67.2664 66.8437 67.6227L63.6094 63.9664C62.6625 64.5289 61.7156 65.1008 60.7594 65.6539C60.15 64.9602 59.55 64.257 58.9406 63.5633L57.2344 63.9852C56.8781 61.8758 56.5031 59.7758 56.1375 57.6664C57.7969 59.5789 59.4656 61.4914 61.125 63.4039L65.2406 60.9664C62.9344 59.1289 60.5906 56.3914 60.5906 56.3914L60.8437 60.4695C59.1844 58.2758 57.5156 56.082 55.8562 53.8883C54.7312 56.2602 53.6062 58.6414 52.4719 61.0133C52.2469 59.1102 52.0219 57.207 51.7875 55.3039L53.3344 55.1164C54.0562 53.5883 54.7781 52.0602 55.5094 50.5414C56.5875 51.9477 57.6562 53.3633 58.725 54.7695C58.6781 53.9633 58.6219 53.157 58.575 52.3508C59.7 52.7727 60.8344 53.1852 61.9687 53.5977L59.5219 50.2977L54.2812 47.5977C53.7 48.9102 53.1187 50.232 52.5375 51.5445C52.0687 50.157 51.5906 48.7602 51.1219 47.3727L52.7062 46.8289C52.9406 46.2758 53.1844 45.732 53.4281 45.1864C55.2562 46.1164 57.075 47.0633 58.8937 48.0008L60.4312 47.4852C56.3625 44.2723 54.375 41.0305 53.2969 37.7773ZM75 42.2623L67.6594 55.7164L72.9094 54.4039L71.3906 79.5945H78.6094L77.0906 54.4039L82.3406 55.7164L75 42.2623Z" fill="#A58C09"/>
</svg>
