<svg width="120" height="120" viewBox="0 0 120 120" fill="none" xmlns="http://www.w3.org/2000/svg">
<rect width="120" height="120" rx="60" fill="#F7F7F7"/>
<path d="M58 40C49.164 40 42 47.09 42 55.838C42 58.824 42.834 61.618 44.286 64" stroke="#A58C09" stroke-width="3.5" stroke-linecap="round"/>
<path d="M65 58V62M71 58V62M65 42V46M71 42V46M62 49H58M62 55H58M78 49H74M78 55H74M70 46H66C64.114 46 63.172 46 62.586 46.586C62 47.172 62 48.114 62 50V54C62 55.886 62 56.828 62.586 57.414C63.172 58 64.114 58 66 58H70C71.886 58 72.828 58 73.414 57.414C74 56.828 74 55.886 74 54V50C74 48.114 74 47.172 73.414 46.586C72.828 46 71.886 46 70 46Z" stroke="#A58C09" stroke-width="3.5" stroke-linecap="round" stroke-linejoin="round"/>
<path d="M64.0007 74L63.7407 75.294C63.4607 76.708 63.3187 77.414 63.0007 77.974C62.5107 78.8371 61.7173 79.4872 60.7747 79.798C60.1647 80 59.4407 80 58.0007 80C56.5607 80 55.8367 80 55.2267 79.8C54.2838 79.4887 53.4904 78.8379 53.0007 77.974C52.6827 77.414 52.5407 76.708 52.2607 75.294L52.0007 74M48.7667 70.196C48.5827 69.644 48.4907 69.366 48.5007 69.142C48.5121 68.9104 48.5902 68.687 48.7258 68.4989C48.8614 68.3108 49.0486 68.166 49.2647 68.082C49.4727 68 49.7647 68 50.3447 68H65.6567C66.2387 68 66.5287 68 66.7367 68.08C66.9532 68.1641 67.1406 68.3092 67.2762 68.4977C67.4118 68.6862 67.4898 68.91 67.5007 69.142C67.5107 69.366 67.4187 69.642 67.2347 70.196C66.8947 71.218 66.7247 71.73 66.4627 72.144C65.9147 73.0092 65.0557 73.6313 64.0627 73.882C63.5867 74 63.0507 74 61.9767 74H54.0247C52.9507 74 52.4127 74 51.9387 73.88C50.9461 73.6298 50.0871 73.0085 49.5387 72.144C49.2767 71.73 49.1067 71.218 48.7667 70.196Z" stroke="#A58C09" stroke-width="3.5"/>
</svg>
