<svg width="147" height="151" viewBox="0 0 147 151" fill="none" xmlns="http://www.w3.org/2000/svg">
<g clip-path="url(#clip0_331_197)">
<path d="M73.4297 33.0312C82.3094 33.0312 89.5078 25.637 89.5078 16.5156C89.5078 7.3943 82.3094 0 73.4297 0C64.55 0 57.3516 7.3943 57.3516 16.5156C57.3516 25.637 64.55 33.0312 73.4297 33.0312Z" fill="#1A1A2E"/>
<path d="M113.3 81.9588L110.334 71.8105V71.7781L103.885 49.7003H103.871L103.15 47.2082C102.359 44.4755 100.73 42.0784 98.5056 40.3736C96.2811 38.6688 93.5801 37.7476 90.8047 37.7471H56.3515C53.5758 37.7462 50.8741 38.6669 48.6493 40.3718C46.4245 42.0768 44.7957 44.4748 44.0058 47.2082L43.2852 49.7003H43.268L36.8195 71.7781V71.8105L33.8422 81.9588C32.9464 85.023 34.5025 88.3468 37.4511 89.3731C38.1816 89.6286 38.9547 89.7302 39.7243 89.6718C40.4938 89.6135 41.244 89.3964 41.9301 89.0336C42.6161 88.6708 43.2239 88.1696 43.7172 87.5601C44.2105 86.9506 44.5792 86.2452 44.8011 85.4861L52.1454 60.344L52.7684 58.2117C52.9504 57.6906 53.3049 57.2518 53.77 56.9721C54.2351 56.6924 54.7811 56.5896 55.3126 56.6817C55.844 56.7737 56.327 57.0549 56.677 57.4758C57.027 57.8968 57.2218 58.4308 57.2272 58.9844C57.227 59.144 57.2107 59.3031 57.1784 59.4592L44.6231 102.456C44.4172 103.16 44.3746 103.905 44.4985 104.629C44.6224 105.354 44.9095 106.038 45.3368 106.628C45.7641 107.219 46.3199 107.698 46.9596 108.029C47.5994 108.359 48.3056 108.531 49.0216 108.531H57.3478V142.356C57.3478 147.21 60.3711 151 64.2384 151C68.1058 151 71.1291 147.21 71.1291 142.356V108.531H75.7228V142.356C75.7228 147.21 78.7461 151 82.6134 151C86.4808 151 89.5041 147.21 89.5041 142.356V108.531H98.1173C98.8337 108.532 99.5401 108.36 100.18 108.03C100.82 107.699 101.377 107.22 101.804 106.63C102.232 106.039 102.519 105.354 102.643 104.63C102.767 103.905 102.725 103.161 102.519 102.456L89.9606 59.4533C89.929 59.2991 89.9136 59.1419 89.9146 58.9844C89.9176 58.4291 90.1111 57.8927 90.4611 57.4695C90.8111 57.0463 91.2952 56.7635 91.8282 56.6709C92.3612 56.5782 92.9089 56.6816 93.375 56.9629C93.8411 57.2442 94.1957 57.6854 94.3763 58.2087L94.9993 60.341L102.341 85.4831C102.564 86.2411 102.933 86.9453 103.426 87.5536C103.92 88.1619 104.527 88.6619 105.213 89.0238C105.899 89.3857 106.648 89.6021 107.417 89.6601C108.186 89.7181 108.958 89.6165 109.688 89.3613C112.636 88.3468 114.193 85.023 113.3 81.9588Z" fill="#1A1A2E"/>
</g>
<defs>
<clipPath id="clip0_331_197">
<rect width="147" height="151" fill="white"/>
</clipPath>
</defs>
</svg>
