<svg width="49" height="52" viewBox="0 0 49 52" fill="none" xmlns="http://www.w3.org/2000/svg">
<path d="M36.8997 0.400391C36.4753 0.400391 36.0684 0.568962 35.7683 0.86902C35.4682 1.16908 35.2997 1.57604 35.2997 2.00039C35.2997 2.42474 35.4682 2.8317 35.7683 3.13176C36.0684 3.43182 36.4753 3.60039 36.8997 3.60039H42.6373L27.2997 18.938L18.8325 10.4676C18.6839 10.3186 18.5073 10.2004 18.3129 10.1197C18.1185 10.039 17.9101 9.99753 17.6997 9.99753C17.4892 9.99753 17.2808 10.039 17.0865 10.1197C16.8921 10.2004 16.7155 10.3186 16.5669 10.4676L0.566877 26.4676C0.26644 26.768 0.0976562 27.1755 0.0976563 27.6004C0.0976563 28.0253 0.26644 28.4328 0.566877 28.7332C0.867314 29.0336 1.27479 29.2024 1.69968 29.2024C2.12456 29.2024 2.53204 29.0336 2.83248 28.7332L17.6997 13.8628L26.1669 22.3332C26.3155 22.4822 26.4921 22.6004 26.6865 22.6811C26.8808 22.7617 27.0892 22.8033 27.2997 22.8033C27.5101 22.8033 27.7185 22.7617 27.9129 22.6811C28.1073 22.6004 28.2839 22.4822 28.4325 22.3332L44.8997 5.86279V11.6004C44.8997 12.0247 45.0682 12.4317 45.3683 12.7318C45.6684 13.0318 46.0753 13.2004 46.4997 13.2004C46.924 13.2004 47.331 13.0318 47.6311 12.7318C47.9311 12.4317 48.0997 12.0247 48.0997 11.6004V2.00039C48.0997 1.57604 47.9311 1.16908 47.6311 0.86902C47.331 0.568962 46.924 0.400391 46.4997 0.400391H36.8997ZM40.0997 22.8004C39.6753 22.8004 39.2684 22.969 38.9683 23.269C38.6682 23.5691 38.4997 23.976 38.4997 24.4004V50.0004C38.4997 50.4247 38.6682 50.8317 38.9683 51.1318C39.2684 51.4318 39.6753 51.6004 40.0997 51.6004C40.524 51.6004 40.931 51.4318 41.231 51.1318C41.5311 50.8317 41.6997 50.4247 41.6997 50.0004V24.4004C41.6997 23.976 41.5311 23.5691 41.231 23.269C40.931 22.969 40.524 22.8004 40.0997 22.8004ZM14.4997 29.2004C14.0753 29.2004 13.6684 29.369 13.3683 29.669C13.0682 29.9691 12.8997 30.376 12.8997 30.8004V50.0004C12.8997 50.4247 13.0682 50.8317 13.3683 51.1318C13.6684 51.4318 14.0753 51.6004 14.4997 51.6004C14.924 51.6004 15.331 51.4318 15.631 51.1318C15.9311 50.8317 16.0997 50.4247 16.0997 50.0004V30.8004C16.0997 30.376 15.9311 29.9691 15.631 29.669C15.331 29.369 14.924 29.2004 14.4997 29.2004ZM25.6997 37.2004C25.6997 36.776 25.8682 36.3691 26.1683 36.069C26.4684 35.769 26.8753 35.6004 27.2997 35.6004C27.724 35.6004 28.131 35.769 28.431 36.069C28.7311 36.3691 28.8997 36.776 28.8997 37.2004V50.0004C28.8997 50.4247 28.7311 50.8317 28.431 51.1318C28.131 51.4318 27.724 51.6004 27.2997 51.6004C26.8753 51.6004 26.4684 51.4318 26.1683 51.1318C25.8682 50.8317 25.6997 50.4247 25.6997 50.0004V37.2004ZM0.0996773 40.4004C0.0996773 39.976 0.268249 39.5691 0.568307 39.269C0.868365 38.969 1.27533 38.8004 1.69968 38.8004C2.12402 38.8004 2.53099 38.969 2.83105 39.269C3.13111 39.5691 3.29968 39.976 3.29968 40.4004V50.0004C3.29968 50.4247 3.13111 50.8317 2.83105 51.1318C2.53099 51.4318 2.12402 51.6004 1.69968 51.6004C1.27533 51.6004 0.868365 51.4318 0.568307 51.1318C0.268249 50.8317 0.0996773 50.4247 0.0996773 50.0004V40.4004Z" fill="black"/>
</svg>
