<svg width="25" height="25" viewBox="0 0 25 25" fill="none" xmlns="http://www.w3.org/2000/svg">
<path d="M2.56641 12.3246C2.56641 7.72488 2.56641 5.42401 3.99521 3.99521C5.42401 2.56641 7.72385 2.56641 12.3246 2.56641C16.9242 2.56641 19.2251 2.56641 20.6539 3.99521C22.0827 5.42401 22.0827 7.72385 22.0827 12.3246C22.0827 16.9242 22.0827 19.2251 20.6539 20.6539C19.2251 22.0827 16.9253 22.0827 12.3246 22.0827C7.72488 22.0827 5.42401 22.0827 3.99521 20.6539C2.56641 19.2251 2.56641 16.9253 2.56641 12.3246Z" stroke="#FFD300" stroke-width="1.54076" stroke-linecap="round" stroke-linejoin="round"/>
<path d="M17.9831 6.67578H17.9728M16.9477 12.3252C16.9477 13.5511 16.4607 14.7268 15.5939 15.5937C14.727 16.4605 13.5513 16.9475 12.3254 16.9475C11.0995 16.9475 9.92381 16.4605 9.05696 15.5937C8.19011 14.7268 7.70313 13.5511 7.70313 12.3252C7.70312 11.0993 8.19011 9.92364 9.05696 9.05679C9.92381 8.18994 11.0995 7.70296 12.3254 7.70296C13.5513 7.70296 14.727 8.18994 15.5939 9.05679C16.4607 9.92364 16.9477 11.0993 16.9477 12.3252Z" stroke="#FFD300" stroke-width="1.54076" stroke-linecap="round" stroke-linejoin="round"/>
</svg>
