<svg width="25" height="26" viewBox="0 0 25 26" fill="none" xmlns="http://www.w3.org/2000/svg">
<path d="M12.3246 22.7798C7.72488 22.7798 5.42401 22.7798 3.99521 21.351C2.56641 19.9222 2.56641 17.6223 2.56641 13.0216C2.56641 8.42194 2.56641 6.12107 3.9952 4.69227C5.424 3.26348 7.72385 3.26347 12.3246 3.26347C16.9242 3.26347 19.2251 3.26347 20.6539 4.69227C22.0827 6.12107 22.0827 8.42092 22.0827 13.0216C22.0827 17.6213 22.0827 19.9222 20.6539 21.351C19.2251 22.7798 16.9253 22.7798 12.3246 22.7798Z" stroke="#F0F0F0" stroke-width="1.54076" stroke-linecap="round" stroke-linejoin="round"/>
<path d="M6.6748 7.36409L6.6748 7.37436M12.3243 8.39948C13.5502 8.39948 14.7259 8.88647 15.5927 9.75331C16.4596 10.6202 16.9465 11.7959 16.9465 13.0218C16.9465 14.2477 16.4596 15.4234 15.5927 16.2902C14.7259 17.1571 13.5502 17.644 12.3243 17.644C11.0984 17.644 9.92266 17.1571 9.05581 16.2902C8.18897 15.4234 7.70198 14.2477 7.70198 13.0218C7.70198 11.7959 8.18897 10.6202 9.05581 9.75331C9.92266 8.88647 11.0984 8.39948 12.3243 8.39948Z" stroke="#F0F0F0" stroke-width="1.54076" stroke-linecap="round" stroke-linejoin="round"/>
</svg>
