<svg width="26" height="25" viewBox="0 0 26 25" fill="none" xmlns="http://www.w3.org/2000/svg">
<path d="M3.22021 12.3246C3.22021 7.72488 3.22021 5.42401 4.64901 3.99521C6.07781 2.56641 8.37766 2.56641 12.9784 2.56641C17.5781 2.56641 19.8789 2.56641 21.3077 3.99521C22.7365 5.42401 22.7365 7.72385 22.7365 12.3246C22.7365 16.9242 22.7365 19.2251 21.3077 20.6539C19.8789 22.0827 17.5791 22.0827 12.9784 22.0827C8.37868 22.0827 6.07781 22.0827 4.64901 20.6539C3.22021 19.2251 3.22021 16.9253 3.22021 12.3246Z" stroke="#A58C09" stroke-opacity="0.75" stroke-width="1.54076" stroke-linecap="round" stroke-linejoin="round"/>
<path d="M18.6359 6.6748H18.6256M17.6005 12.3243C17.6005 13.5502 17.1135 14.7259 16.2467 15.5927C15.3798 16.4596 14.2041 16.9465 12.9782 16.9465C11.7523 16.9465 10.5766 16.4596 9.70979 15.5927C8.84295 14.7259 8.35596 13.5502 8.35596 12.3243C8.35596 11.0984 8.84295 9.92266 9.70979 9.05581C10.5766 8.18897 11.7523 7.70198 12.9782 7.70198C14.2041 7.70198 15.3798 8.18897 16.2467 9.05581C17.1135 9.92266 17.6005 11.0984 17.6005 12.3243Z" stroke="#A58C09" stroke-opacity="0.75" stroke-width="1.54076" stroke-linecap="round" stroke-linejoin="round"/>
</svg>
