<svg width="226" height="58" viewBox="0 0 226 58" fill="none" xmlns="http://www.w3.org/2000/svg">
<path d="M4.35938 26.1583C4.35938 25.3557 5.00999 24.7051 5.81258 24.7051H8.30379C9.10638 24.7051 9.75699 25.3557 9.75699 26.1583V37.9915C9.75699 38.7941 9.10638 39.4448 8.30379 39.4448H5.81258C5.00999 39.4448 4.35938 38.7941 4.35938 37.9915V26.1583Z" fill="white"/>
<path d="M9.75642 19.8255C9.75642 21.2587 8.59459 22.4205 7.16142 22.4205C5.72823 22.4205 4.56641 21.2587 4.56641 19.8255C4.56641 18.3923 5.72823 17.2305 7.16142 17.2305C8.59459 17.2305 9.75642 18.3923 9.75642 19.8255Z" fill="white"/>
<path d="M23.25 22.6309C23.25 21.8284 23.9006 21.1777 24.7032 21.1777H27.1944C27.997 21.1777 28.6476 21.8284 28.6476 22.6309V45.0519C28.6476 45.8544 27.997 46.5051 27.1944 46.5051H24.7032C23.9006 46.5051 23.25 45.8544 23.25 45.0519V22.6309Z" fill="white"/>
<path d="M28.44 16.0911C28.44 17.5243 27.2782 18.6861 25.845 18.6861C24.4118 18.6861 23.25 17.5243 23.25 16.0911C23.25 14.6579 24.4118 13.4961 25.845 13.4961C27.2782 13.4961 28.44 14.6579 28.44 16.0911Z" fill="white"/>
<path d="M32.5938 14.3263C32.5938 13.5237 33.2444 12.873 34.047 12.873H36.5382C37.3408 12.873 37.9914 13.5237 37.9914 14.3263V41.1068C37.9914 41.9094 37.3408 42.56 36.5382 42.56H34.047C33.2444 42.56 32.5938 41.9094 32.5938 41.1068V14.3263Z" fill="white"/>
<path d="M37.9908 7.78642C37.9908 9.2196 36.829 10.3814 35.3958 10.3814C33.9626 10.3814 32.8008 9.2196 32.8008 7.78642C32.8008 6.35323 33.9626 5.19141 35.3958 5.19141C36.829 5.19141 37.9908 6.35323 37.9908 7.78642Z" fill="white"/>
<path d="M42.1445 25.1192C42.1445 24.3166 42.7951 23.666 43.5977 23.666H46.089C46.8915 23.666 47.5422 24.3166 47.5422 25.1192V42.3501C47.5422 43.1527 46.8915 43.8033 46.089 43.8033H43.5977C42.7951 43.8033 42.1445 43.1527 42.1445 42.3501V25.1192Z" fill="white"/>
<path d="M47.3346 18.7884C47.3346 20.2215 46.1727 21.3834 44.7395 21.3834C43.3064 21.3834 42.1445 20.2215 42.1445 18.7884C42.1445 17.3552 43.3064 16.1934 44.7395 16.1934C46.1727 16.1934 47.3346 17.3552 47.3346 18.7884Z" fill="white"/>
<path d="M13.7031 20.9688C13.7031 20.1662 14.3537 19.5156 15.1563 19.5156H17.6475C18.4501 19.5156 19.1008 20.1662 19.1008 20.9688V37.9921C19.1008 38.7947 18.4501 39.4453 17.6475 39.4453H15.1563C14.3537 39.4453 13.7031 38.7947 13.7031 37.9921V20.9688Z" fill="white"/>
<path d="M19.1002 44.1165C19.1002 45.5497 17.9383 46.7115 16.5052 46.7115C15.072 46.7115 13.9102 45.5497 13.9102 44.1165C13.9102 42.6833 15.072 41.5215 16.5052 41.5215C17.9383 41.5215 19.1002 42.6833 19.1002 44.1165Z" fill="white"/>
<path d="M65.5137 21.9238H68.7559C70.8457 21.9238 72.3984 22.1842 73.4141 22.7051C74.4297 23.2194 75.2663 24.0592 75.9238 25.2246C76.5814 26.39 76.9102 27.7507 76.9102 29.3066C76.9102 30.4134 76.7246 31.4323 76.3535 32.3633C75.9889 33.2878 75.4811 34.056 74.8301 34.668C74.1855 35.2799 73.4857 35.7031 72.7305 35.9375C71.9753 36.1719 70.6667 36.2891 68.8047 36.2891H65.5137V21.9238ZM68.2383 24.5605V33.6133H69.5078C70.7578 33.6133 71.6628 33.4701 72.2227 33.1836C72.7891 32.8971 73.2513 32.4154 73.6094 31.7383C73.9674 31.0612 74.1465 30.2279 74.1465 29.2383C74.1465 27.7148 73.7201 26.5332 72.8672 25.6934C72.099 24.9382 70.8652 24.5605 69.166 24.5605H68.2383ZM79.5176 21.9238H87.3594V24.5996H82.2324V27.1973H87.3594V29.8242H82.2324V33.6035H87.3594V36.2891H79.5176V21.9238ZM89.9277 21.9238H92.5449L98.707 31.377V21.9238H101.441V36.2891H98.8145L92.6621 26.8652V36.2891H89.9277V21.9238ZM104.713 21.9238H107.486V27.3438H112.291V21.9238H115.055V36.2891H112.291V29.9902H107.486V36.2891H104.713V21.9238ZM122.711 21.9238H125.484L131.012 36.2891H128.17L127.047 33.3301H121.188L120.016 36.2891H117.174L122.711 21.9238ZM124.117 25.7324L122.203 30.6641H126.021L124.117 25.7324ZM134.527 21.9238H137.203L140.523 31.9434L143.893 21.9238H146.529L148.951 36.2891H146.314L144.771 27.2168L141.715 36.2891H139.303L136.285 27.2168L134.713 36.2891H132.047L134.527 21.9238ZM165.758 30.6445L167.389 32.5098L166.646 33.1836L165.914 33.8477L168.219 36.2891H164.908L163.961 35.3125C162.451 36.2044 161.048 36.6504 159.752 36.6504C158.652 36.6504 157.76 36.3281 157.076 35.6836C156.399 35.0391 156.061 34.2122 156.061 33.2031C156.061 32.4414 156.253 31.722 156.637 31.0449C157.021 30.3678 157.678 29.668 158.609 28.9453C157.691 27.7018 157.232 26.6016 157.232 25.6445C157.232 24.9349 157.538 24.235 158.15 23.5449C158.762 22.8548 159.625 22.5098 160.738 22.5098C161.865 22.5098 162.727 22.8516 163.326 23.5352C163.932 24.2188 164.234 24.9089 164.234 25.6055C164.234 26.1523 164.094 26.6764 163.814 27.1777C163.541 27.679 162.906 28.4212 161.91 29.4043C163.076 30.778 163.827 31.6341 164.166 31.9727C164.374 31.8164 164.905 31.3737 165.758 30.6445ZM160.562 27.4805C161.285 26.862 161.646 26.3151 161.646 25.8398C161.646 25.5924 161.565 25.3906 161.402 25.2344C161.24 25.0781 161.025 25 160.758 25C160.51 25 160.299 25.0879 160.123 25.2637C159.954 25.4395 159.869 25.6445 159.869 25.8789C159.869 26.3477 160.1 26.8815 160.562 27.4805ZM162.184 33.418C161.682 32.9232 160.976 32.1029 160.064 30.957C159.094 31.7578 158.609 32.4577 158.609 33.0566C158.609 33.3366 158.74 33.5938 159 33.8281C159.267 34.0625 159.602 34.1797 160.006 34.1797C160.585 34.1797 161.311 33.9258 162.184 33.418ZM189.234 24.2676L187.311 26.1719C186.093 24.8828 184.674 24.2383 183.053 24.2383C181.64 24.2383 180.455 24.707 179.498 25.6445C178.548 26.582 178.072 27.7214 178.072 29.0625C178.072 30.4492 178.567 31.6243 179.557 32.5879C180.546 33.5514 181.767 34.0332 183.219 34.0332C184.163 34.0332 184.957 33.8346 185.602 33.4375C186.253 33.0404 186.777 32.4186 187.174 31.5723H183.014V29.0039H190.24L190.26 29.6094C190.26 30.8659 189.934 32.0573 189.283 33.1836C188.632 34.3099 187.789 35.1693 186.754 35.7617C185.719 36.3542 184.505 36.6504 183.111 36.6504C181.62 36.6504 180.289 36.3281 179.117 35.6836C177.952 35.0326 177.027 34.1081 176.344 32.9102C175.667 31.7122 175.328 30.4199 175.328 29.0332C175.328 27.1322 175.956 25.4785 177.213 24.0723C178.704 22.3991 180.644 21.5625 183.033 21.5625C184.283 21.5625 185.452 21.7936 186.539 22.2559C187.457 22.6465 188.355 23.3171 189.234 24.2676ZM192.955 21.9238H195.855C197.444 21.9238 198.574 22.0671 199.244 22.3535C199.921 22.6335 200.465 23.1022 200.875 23.7598C201.285 24.4173 201.49 25.1953 201.49 26.0938C201.49 27.0378 201.262 27.8288 200.807 28.4668C200.357 29.0983 199.677 29.5768 198.766 29.9023L202.164 36.2891H199.176L195.943 30.2051H195.689V36.2891H192.955V21.9238ZM195.689 27.5391H196.549C197.421 27.5391 198.02 27.4251 198.346 27.1973C198.678 26.9694 198.844 26.5918 198.844 26.0645C198.844 25.752 198.762 25.4818 198.6 25.2539C198.437 25.0195 198.219 24.8535 197.945 24.7559C197.672 24.6517 197.171 24.5996 196.441 24.5996H195.689V27.5391ZM204.381 21.9238H212.223V24.5996H207.096V27.1973H212.223V29.8242H207.096V33.6035H212.223V36.2891H204.381V21.9238ZM213.756 21.9238H216.695L219.371 27.0801L222.027 21.9238H224.928L220.729 30.0684V36.2891H217.975V30.0684L213.756 21.9238Z" fill="white"/>
</svg>
