<svg width="176" height="77" viewBox="0 0 176 77" fill="none" xmlns="http://www.w3.org/2000/svg">
<path d="M5.83008 34.9815C5.83008 33.9082 6.70018 33.0381 7.77352 33.0381H11.1051C12.1784 33.0381 13.0485 33.9082 13.0485 34.9815V50.8066C13.0485 51.88 12.1784 52.7501 11.1051 52.7501H7.77352C6.70018 52.7501 5.83008 51.88 5.83008 50.8066V34.9815Z" fill="#F4F2E4"/>
<path d="M13.0502 26.5144C13.0502 28.431 11.4964 29.9848 9.5798 29.9848C7.66314 29.9848 6.10938 28.431 6.10938 26.5144C6.10938 24.5977 7.66314 23.0439 9.5798 23.0439C11.4964 23.0439 13.0502 24.5977 13.0502 26.5144Z" fill="#FFCC00"/>
<path d="M31.0957 30.2618C31.0957 29.1885 31.9658 28.3184 33.0391 28.3184H36.3707C37.4441 28.3184 38.3142 29.1885 38.3142 30.2618V60.2462C38.3142 61.3196 37.4441 62.1897 36.3707 62.1897H33.0391C31.9658 62.1897 31.0957 61.3196 31.0957 60.2462V30.2618Z" fill="#F4F2E4"/>
<path d="M38.0365 21.5163C38.0365 23.433 36.4828 24.9867 34.5661 24.9867C32.6495 24.9867 31.0957 23.433 31.0957 21.5163C31.0957 19.5997 32.6495 18.0459 34.5661 18.0459C36.4828 18.0459 38.0365 19.5997 38.0365 21.5163Z" fill="#FFCC00"/>
<path d="M43.5879 19.1563C43.5879 18.083 44.458 17.2129 45.5313 17.2129H48.8629C49.9363 17.2129 50.8064 18.083 50.8064 19.1563V54.9711C50.8064 56.0444 49.9363 56.9145 48.8629 56.9145H45.5313C44.458 56.9145 43.5879 56.0444 43.5879 54.9711V19.1563Z" fill="#F4F2E4"/>
<path d="M50.808 10.4109C50.808 12.3275 49.2543 13.8813 47.3376 13.8813C45.421 13.8813 43.8672 12.3275 43.8672 10.4109C43.8672 8.49419 45.421 6.94043 47.3376 6.94043C49.2543 6.94043 50.808 8.49419 50.808 10.4109Z" fill="#FFCC00"/>
<path d="M56.3594 33.5938C56.3594 32.5205 57.2295 31.6504 58.3028 31.6504H61.6344C62.7078 31.6504 63.5779 32.5205 63.5779 33.5938V56.6374C63.5779 57.7108 62.7078 58.5809 61.6344 58.5809H58.3028C57.2295 58.5809 56.3594 57.7108 56.3594 56.6374V33.5938Z" fill="#F4F2E4"/>
<path d="M63.3002 25.1257C63.3002 27.0423 61.7464 28.5961 59.8298 28.5961C57.9131 28.5961 56.3594 27.0423 56.3594 25.1257C56.3594 23.209 57.9131 21.6553 59.8298 21.6553C61.7464 21.6553 63.3002 23.209 63.3002 25.1257Z" fill="#FFCC00"/>
<path d="M18.3242 28.0411C18.3242 26.9678 19.1943 26.0977 20.2677 26.0977H23.5993C24.6726 26.0977 25.5427 26.9678 25.5427 28.0411V50.8071C25.5427 51.8804 24.6726 52.7505 23.5993 52.7505H20.2677C19.1943 52.7505 18.3242 51.8804 18.3242 50.8071V28.0411Z" fill="#F4F2E4"/>
<path d="M25.5424 58.9968C25.5424 60.9134 23.9886 62.4672 22.072 62.4672C20.1553 62.4672 18.6016 60.9134 18.6016 58.9968C18.6016 57.0801 20.1553 55.5264 22.072 55.5264C23.9886 55.5264 25.5424 57.0801 25.5424 58.9968Z" fill="#FFCC00"/>
<path d="M96.8082 26.86C96.8082 28.34 96.5149 29.4933 95.9282 30.32C95.3549 31.1333 94.5415 31.7 93.4882 32.02C92.4349 32.34 91.1949 32.5 89.7682 32.5H86.6682V21.24H89.7682C91.1949 21.24 92.4349 21.4533 93.4882 21.88C94.5415 22.2933 95.3549 22.9133 95.9282 23.74C96.5149 24.5667 96.8082 25.6067 96.8082 26.86ZM88.6882 30.82H90.3482C91.2282 30.82 91.9882 30.72 92.6282 30.52C93.2682 30.3067 93.7615 29.9133 94.1082 29.34C94.4549 28.7667 94.6282 27.9333 94.6282 26.84C94.6282 25.5467 94.2415 24.5867 93.4682 23.96C92.7082 23.32 91.6682 23 90.3482 23H88.6882V30.82ZM100.617 30.86H106.837V32.5H98.5971V21.24H106.637V23H100.617V25.96H105.237V27.64H100.617V30.86ZM116.417 21.24H118.537V32.5H114.657L110.797 22.14H110.757V32.5H108.657V21.24H112.257L116.377 31.6H116.417V21.24ZM122.906 32.5H120.846V21.24H122.906V25.98H128.246V21.24H130.286V32.5H128.246V27.56H122.906V32.5ZM131.823 32.5L135.423 21.24H138.763L142.463 32.5H140.283L139.323 29.32H134.943L133.983 32.5H131.823ZM137.123 22.1L135.423 27.74H138.843L137.123 22.1ZM143.931 32.5V21.24H147.491L150.131 31.62H150.171L152.791 21.24H156.331V32.5H154.211L154.351 22.16H154.331L151.631 32.5H148.631L145.971 22.16H145.931L146.051 32.5H143.931ZM173.674 32.54C172.741 32.1533 171.834 31.68 170.954 31.12C170.381 31.64 169.734 32.0333 169.014 32.3C168.308 32.5533 167.588 32.68 166.854 32.68C166.121 32.68 165.448 32.5533 164.834 32.3C164.221 32.0467 163.721 31.6733 163.334 31.18C162.961 30.6867 162.774 30.0667 162.774 29.32C162.774 28.7733 162.881 28.32 163.094 27.96C163.321 27.5867 163.581 27.2867 163.874 27.06C164.181 26.82 164.468 26.64 164.734 26.52C165.014 26.3867 165.214 26.2933 165.334 26.24C165.268 26.1333 165.134 25.9667 164.934 25.74C164.734 25.5 164.548 25.2 164.374 24.84C164.201 24.48 164.114 24.0733 164.114 23.62C164.114 23.06 164.261 22.5933 164.554 22.22C164.861 21.8467 165.248 21.5667 165.714 21.38C166.194 21.18 166.694 21.08 167.214 21.08C167.748 21.0667 168.248 21.1467 168.714 21.32C169.194 21.4933 169.581 21.7667 169.874 22.14C170.181 22.5133 170.334 22.98 170.334 23.54C170.334 24.0067 170.221 24.42 169.994 24.78C169.768 25.14 169.501 25.4467 169.194 25.7C168.888 25.94 168.608 26.1267 168.354 26.26C168.101 26.3933 167.948 26.4733 167.894 26.5C168.041 26.6867 168.328 26.9867 168.754 27.4C169.194 27.8133 169.694 28.2467 170.254 28.7C170.361 28.5533 170.474 28.3333 170.594 28.04C170.728 27.7333 170.794 27.4133 170.794 27.08C170.794 26.7467 170.661 26.4533 170.394 26.2L172.094 25.08C172.174 25.1733 172.281 25.38 172.414 25.7C172.561 26.0067 172.674 26.3867 172.754 26.84C172.834 27.28 172.828 27.76 172.734 28.28C172.654 28.8 172.434 29.3133 172.074 29.82C172.408 30.0333 172.748 30.24 173.094 30.44C173.454 30.6267 173.894 30.8267 174.414 31.04L173.674 32.54ZM166.774 25.56C166.948 25.4667 167.174 25.34 167.454 25.18C167.734 25.0067 167.988 24.8067 168.214 24.58C168.441 24.3533 168.568 24.1067 168.594 23.84C168.621 23.5333 168.548 23.2867 168.374 23.1C168.201 22.9 167.981 22.7667 167.714 22.7C167.448 22.62 167.174 22.6133 166.894 22.68C166.628 22.7333 166.401 22.8533 166.214 23.04C166.028 23.2267 165.941 23.4867 165.954 23.82C165.968 24.34 166.241 24.92 166.774 25.56ZM169.374 29.98C168.814 29.5533 168.288 29.1067 167.794 28.64C167.301 28.16 166.848 27.6733 166.434 27.18C166.021 27.3933 165.641 27.64 165.294 27.92C164.961 28.1867 164.794 28.5733 164.794 29.08C164.794 29.5733 164.954 29.9733 165.274 30.28C165.608 30.5867 166.021 30.7867 166.514 30.88C167.008 30.96 167.514 30.9267 168.034 30.78C168.554 30.6333 169.001 30.3667 169.374 29.98ZM91.2082 59.72C90.1149 59.72 89.1549 59.5 88.3282 59.06C87.5149 58.62 86.8882 57.9733 86.4482 57.12C86.0082 56.2533 85.8015 55.1933 85.8282 53.94C85.8415 52.6733 86.0882 51.6 86.5682 50.72C87.0615 49.84 87.7349 49.1733 88.5882 48.72C89.4415 48.2667 90.4282 48.04 91.5482 48.04C93.0815 48.04 94.2682 48.3733 95.1082 49.04C95.9482 49.7067 96.5082 50.6733 96.7882 51.94L94.8282 52.22C94.6282 51.38 94.2149 50.7933 93.5882 50.46C92.9749 50.1267 92.2949 49.96 91.5482 49.96C90.2682 49.96 89.3282 50.3067 88.7282 51C88.1415 51.6933 87.8415 52.62 87.8282 53.78C87.8282 55.06 88.1682 56.0467 88.8482 56.74C89.5282 57.42 90.5015 57.76 91.7682 57.76C92.5415 57.76 93.2415 57.58 93.8682 57.22C94.4949 56.8467 94.9015 56.2533 95.0882 55.44H92.6082V53.94H97.0082V59.5H95.6282L95.1682 57.54H95.1282C94.9949 57.8733 94.7615 58.2067 94.4282 58.54C94.1082 58.8733 93.6815 59.1533 93.1482 59.38C92.6149 59.6067 91.9682 59.72 91.2082 59.72ZM98.9891 59.5V48.24H103.129C104.582 48.24 105.716 48.4867 106.529 48.98C107.342 49.46 107.749 50.3133 107.749 51.54C107.749 52.46 107.529 53.2067 107.089 53.78C106.649 54.34 106.016 54.62 105.189 54.62C105.656 54.62 106.002 54.7267 106.229 54.94C106.469 55.14 106.636 55.3933 106.729 55.7C106.822 56.0067 106.889 56.3267 106.929 56.66C106.969 56.9933 107.016 57.2933 107.069 57.56C107.136 57.8133 107.256 57.9933 107.429 58.1C107.616 58.2067 107.902 58.1867 108.289 58.04V59.22C108.036 59.4333 107.736 59.5733 107.389 59.64C107.042 59.72 106.702 59.7 106.369 59.58C106.036 59.46 105.756 59.2267 105.529 58.88C105.302 58.52 105.189 58.02 105.189 57.38C105.189 56.7933 105.156 56.3267 105.089 55.98C105.022 55.62 104.856 55.3533 104.589 55.18C104.322 54.9933 103.909 54.88 103.349 54.84C102.789 54.7867 102.016 54.7867 101.029 54.84V59.5H98.9891ZM101.029 53.36H103.049C103.702 53.36 104.242 53.3333 104.669 53.28C105.096 53.2133 105.409 53.0667 105.609 52.84C105.822 52.6 105.929 52.22 105.929 51.7C105.929 51.1267 105.802 50.7133 105.549 50.46C105.296 50.2067 104.922 50.0533 104.429 50C103.949 49.9333 103.356 49.9 102.649 49.9H101.029V53.36ZM112.043 57.86H118.263V59.5H110.023V48.24H118.063V50H112.043V52.96H116.663V54.64H112.043V57.86ZM123.106 59.5V55.52L119.266 48.24H121.546L124.166 53.74L126.746 48.24H129.026L125.126 55.5V59.5H123.106Z" fill="white"/>
</svg>
