<svg width="223" height="77" viewBox="0 0 223 77" fill="none" xmlns="http://www.w3.org/2000/svg">
<path d="M5.83008 34.9815C5.83008 33.9082 6.70018 33.0381 7.77352 33.0381H11.1051C12.1784 33.0381 13.0485 33.9082 13.0485 34.9815V50.8066C13.0485 51.88 12.1784 52.7501 11.1051 52.7501H7.77352C6.70018 52.7501 5.83008 51.88 5.83008 50.8066V34.9815Z" fill="#E6BF00"/>
<path d="M13.0502 26.5144C13.0502 28.431 11.4964 29.9848 9.5798 29.9848C7.66314 29.9848 6.10938 28.431 6.10938 26.5144C6.10938 24.5977 7.66314 23.0439 9.5798 23.0439C11.4964 23.0439 13.0502 24.5977 13.0502 26.5144Z" fill="black"/>
<path d="M31.0957 30.2618C31.0957 29.1885 31.9658 28.3184 33.0391 28.3184H36.3707C37.4441 28.3184 38.3142 29.1885 38.3142 30.2618V60.2462C38.3142 61.3196 37.4441 62.1897 36.3707 62.1897H33.0391C31.9658 62.1897 31.0957 61.3196 31.0957 60.2462V30.2618Z" fill="#E6BF00"/>
<path d="M38.0365 21.5163C38.0365 23.433 36.4828 24.9867 34.5661 24.9867C32.6495 24.9867 31.0957 23.433 31.0957 21.5163C31.0957 19.5997 32.6495 18.0459 34.5661 18.0459C36.4828 18.0459 38.0365 19.5997 38.0365 21.5163Z" fill="black"/>
<path d="M43.5879 19.1563C43.5879 18.083 44.458 17.2129 45.5313 17.2129H48.8629C49.9363 17.2129 50.8064 18.083 50.8064 19.1563V54.9711C50.8064 56.0444 49.9363 56.9145 48.8629 56.9145H45.5313C44.458 56.9145 43.5879 56.0444 43.5879 54.9711V19.1563Z" fill="#E6BF00"/>
<path d="M50.808 10.4109C50.808 12.3275 49.2543 13.8813 47.3376 13.8813C45.421 13.8813 43.8672 12.3275 43.8672 10.4109C43.8672 8.49419 45.421 6.94043 47.3376 6.94043C49.2543 6.94043 50.808 8.49419 50.808 10.4109Z" fill="black"/>
<path d="M56.3594 33.5938C56.3594 32.5205 57.2295 31.6504 58.3028 31.6504H61.6344C62.7078 31.6504 63.5779 32.5205 63.5779 33.5938V56.6374C63.5779 57.7108 62.7078 58.5809 61.6344 58.5809H58.3028C57.2295 58.5809 56.3594 57.7108 56.3594 56.6374V33.5938Z" fill="#E6BF00"/>
<path d="M63.3002 25.1257C63.3002 27.0423 61.7464 28.5961 59.8298 28.5961C57.9131 28.5961 56.3594 27.0423 56.3594 25.1257C56.3594 23.209 57.9131 21.6553 59.8298 21.6553C61.7464 21.6553 63.3002 23.209 63.3002 25.1257Z" fill="black"/>
<path d="M18.3242 28.0411C18.3242 26.9678 19.1943 26.0977 20.2677 26.0977H23.5993C24.6726 26.0977 25.5427 26.9678 25.5427 28.0411V50.8071C25.5427 51.8804 24.6726 52.7505 23.5993 52.7505H20.2677C19.1943 52.7505 18.3242 51.8804 18.3242 50.8071V28.0411Z" fill="#E6BF00"/>
<path d="M25.5424 58.9968C25.5424 60.9134 23.9886 62.4672 22.072 62.4672C20.1553 62.4672 18.6016 60.9134 18.6016 58.9968C18.6016 57.0801 20.1553 55.5264 22.072 55.5264C23.9886 55.5264 25.5424 57.0801 25.5424 58.9968Z" fill="black"/>
<path d="M88.6882 44.32C89.1682 44.32 89.5349 44.32 89.7882 44.32C90.0549 44.32 90.2415 44.32 90.3482 44.32C91.0149 44.32 91.6082 44.2667 92.1282 44.16C92.6482 44.04 93.0949 43.84 93.4682 43.56C93.8549 43.2667 94.1415 42.86 94.3282 42.34C94.5282 41.82 94.6282 41.1533 94.6282 40.34C94.6282 39.4867 94.4549 38.78 94.1082 38.22C93.7615 37.6467 93.2682 37.22 92.6282 36.94C91.9882 36.6467 91.2282 36.5 90.3482 36.5H88.6882V44.32ZM96.8082 40.36C96.8082 41.84 96.5149 42.9933 95.9282 43.82C95.3549 44.6333 94.5415 45.2 93.4882 45.52C92.4349 45.84 91.1949 46 89.7682 46C89.5549 46 89.2082 46 88.7282 46C88.2482 46 87.5615 46 86.6682 46V34.74C87.6149 34.74 88.3149 34.74 88.7682 34.74C89.2349 34.74 89.5682 34.74 89.7682 34.74C91.1949 34.74 92.4349 34.9533 93.4882 35.38C94.5415 35.7933 95.3549 36.4133 95.9282 37.24C96.5149 38.0667 96.8082 39.1067 96.8082 40.36ZM98.5971 46V34.74H106.637V36.5H100.617V39.46H105.237V41.14H100.617V44.36H106.837V46H98.5971ZM116.417 34.74H118.537V46H114.657L110.797 35.64H110.757V46H108.657V34.74H112.257L116.377 45.1H116.417V34.74ZM122.906 46H120.846V34.74H122.906V46ZM128.246 34.74H130.286V46H128.246V34.74ZM129.466 41.06H121.786V39.48H129.466V41.06ZM131.823 46L135.423 34.74H138.763L142.463 46H140.283L137.123 35.6L133.983 46H131.823ZM134.243 42.82L134.263 41.24H139.963L139.983 42.82H134.243ZM143.931 46V34.74H147.491L150.131 45.12H150.171L152.791 34.74H156.331V46H154.211L154.351 35.66H154.331L151.631 46H148.631L145.971 35.66H145.931L146.051 46H143.931ZM173.674 46.04C173.181 45.84 172.714 45.6267 172.274 45.4C171.848 45.1733 171.408 44.9133 170.954 44.62C170.394 45.14 169.754 45.5333 169.034 45.8C168.314 46.0533 167.588 46.18 166.854 46.18C166.121 46.18 165.448 46.0533 164.834 45.8C164.221 45.5467 163.721 45.1733 163.334 44.68C162.961 44.1867 162.774 43.5667 162.774 42.82C162.774 42.2733 162.881 41.82 163.094 41.46C163.321 41.0867 163.581 40.7867 163.874 40.56C164.181 40.32 164.468 40.14 164.734 40.02C165.014 39.8867 165.214 39.7933 165.334 39.74C165.268 39.6333 165.134 39.4667 164.934 39.24C164.734 39 164.548 38.7 164.374 38.34C164.201 37.98 164.114 37.5733 164.114 37.12C164.114 36.56 164.261 36.0933 164.554 35.72C164.861 35.3467 165.248 35.0667 165.714 34.88C166.194 34.68 166.701 34.58 167.234 34.58C167.768 34.5667 168.268 34.6533 168.734 34.84C169.201 35.0133 169.581 35.2867 169.874 35.66C170.181 36.02 170.334 36.48 170.334 37.04C170.334 37.5067 170.221 37.92 169.994 38.28C169.768 38.6267 169.501 38.9267 169.194 39.18C168.888 39.4333 168.608 39.6267 168.354 39.76C168.101 39.8933 167.948 39.9733 167.894 40C167.988 40.1333 168.148 40.3133 168.374 40.54C168.614 40.7667 168.894 41.0267 169.214 41.32C169.534 41.6 169.881 41.8933 170.254 42.2C170.334 42.08 170.421 41.92 170.514 41.72C170.608 41.52 170.681 41.3 170.734 41.06C170.788 40.82 170.794 40.58 170.754 40.34C170.714 40.1 170.594 39.8867 170.394 39.7L172.094 38.58C172.161 38.6467 172.248 38.7933 172.354 39.02C172.461 39.2333 172.554 39.5 172.634 39.82C172.728 40.14 172.781 40.4933 172.794 40.88C172.821 41.2667 172.781 41.6667 172.674 42.08C172.568 42.4933 172.368 42.9067 172.074 43.32C172.408 43.5333 172.748 43.74 173.094 43.94C173.454 44.1267 173.894 44.3267 174.414 44.54L173.674 46.04ZM169.374 43.48C169.001 43.1867 168.641 42.8933 168.294 42.6C167.948 42.2933 167.621 41.98 167.314 41.66C167.008 41.3267 166.714 41 166.434 40.68C166.021 40.8933 165.641 41.14 165.294 41.42C164.961 41.6867 164.794 42.0733 164.794 42.58C164.794 42.98 164.901 43.32 165.114 43.6C165.328 43.8667 165.608 44.0733 165.954 44.22C166.314 44.3533 166.694 44.42 167.094 44.42C167.508 44.4067 167.914 44.3267 168.314 44.18C168.714 44.02 169.068 43.7867 169.374 43.48ZM166.774 39.06C166.881 39.0067 167.008 38.94 167.154 38.86C167.301 38.78 167.454 38.6867 167.614 38.58C167.774 38.4733 167.928 38.3533 168.074 38.22C168.221 38.0867 168.341 37.9467 168.434 37.8C168.528 37.6533 168.581 37.5 168.594 37.34C168.621 37.02 168.548 36.7667 168.374 36.58C168.201 36.3933 167.981 36.2667 167.714 36.2C167.448 36.12 167.174 36.1133 166.894 36.18C166.628 36.2333 166.401 36.3533 166.214 36.54C166.028 36.7267 165.941 36.9867 165.954 37.32C165.968 37.56 166.041 37.8333 166.174 38.14C166.308 38.4333 166.508 38.74 166.774 39.06ZM184.919 46.22C183.826 46.22 182.866 46 182.039 45.56C181.226 45.12 180.599 44.4667 180.159 43.6C179.719 42.7333 179.512 41.68 179.539 40.44C179.566 39.1733 179.819 38.1 180.299 37.22C180.779 36.34 181.446 35.6733 182.299 35.22C183.166 34.7667 184.152 34.54 185.259 34.54C186.792 34.54 187.979 34.8733 188.819 35.54C189.672 36.1933 190.232 37.16 190.499 38.44L188.539 38.72C188.406 38.16 188.172 37.7133 187.839 37.38C187.519 37.0467 187.132 36.8133 186.679 36.68C186.226 36.5333 185.752 36.46 185.259 36.46C183.979 36.46 183.032 36.8133 182.419 37.52C181.819 38.2133 181.526 39.1333 181.539 40.28C181.539 41.56 181.879 42.5467 182.559 43.24C183.252 43.92 184.226 44.26 185.479 44.26C185.986 44.26 186.466 44.18 186.919 44.02C187.386 43.8467 187.786 43.5933 188.119 43.26C188.452 42.9133 188.679 42.4733 188.799 41.94H186.319V40.44H190.719V46H189.339L188.879 44.04H188.839C188.746 44.2933 188.592 44.5467 188.379 44.8C188.166 45.0533 187.899 45.2867 187.579 45.5C187.259 45.7133 186.879 45.8867 186.439 46.02C185.999 46.1533 185.492 46.22 184.919 46.22ZM192.7 46V34.74H196.84C197.813 34.74 198.64 34.8467 199.32 35.06C200.013 35.2733 200.54 35.62 200.9 36.1C201.273 36.5667 201.46 37.2133 201.46 38.04C201.46 38.6533 201.36 39.1933 201.16 39.66C200.973 40.1133 200.687 40.4733 200.3 40.74C199.927 40.9933 199.46 41.12 198.9 41.12C199.3 41.12 199.613 41.2 199.84 41.36C200.067 41.5067 200.233 41.7067 200.34 41.96C200.46 42.2 200.54 42.46 200.58 42.74C200.62 43.02 200.653 43.2933 200.68 43.56C200.72 43.8267 200.78 44.06 200.86 44.26C200.94 44.4467 201.067 44.5733 201.24 44.64C201.413 44.6933 201.667 44.66 202 44.54V45.72C201.747 45.9333 201.447 46.0733 201.1 46.14C200.753 46.22 200.413 46.2 200.08 46.08C199.747 45.96 199.467 45.7267 199.24 45.38C199.013 45.02 198.9 44.52 198.9 43.88C198.9 43.4133 198.88 43.02 198.84 42.7C198.8 42.38 198.707 42.1267 198.56 41.94C198.427 41.74 198.207 41.5933 197.9 41.5C197.607 41.3933 197.207 41.3333 196.7 41.32C196.193 41.2933 195.54 41.3 194.74 41.34V46H192.7ZM194.74 39.86H196.76C197.427 39.86 197.967 39.8333 198.38 39.78C198.807 39.7133 199.12 39.56 199.32 39.32C199.533 39.08 199.64 38.7067 199.64 38.2C199.64 37.6267 199.513 37.2133 199.26 36.96C199.007 36.7067 198.633 36.5533 198.14 36.5C197.66 36.4333 197.067 36.4 196.36 36.4H194.74V39.86ZM203.734 46V34.74H211.774V36.5H205.754V39.46H210.374V41.14H205.754V44.36H211.974V46H203.734ZM216.816 42.04L212.976 34.74H215.256L217.876 40.24L220.456 34.74H222.736L218.816 42.04H216.816ZM216.816 46V41.78H218.836V46H216.816Z" fill="black"/>
</svg>
