<svg width="32" height="36" viewBox="0 0 32 36" fill="none" xmlns="http://www.w3.org/2000/svg">
<path d="M2.6875 16.628C2.6875 16.1332 3.08865 15.732 3.5835 15.732H5.11949C5.61434 15.732 6.01549 16.1332 6.01549 16.628V23.924C6.01549 24.4189 5.61434 24.82 5.11949 24.82H3.5835C3.08865 24.82 2.6875 24.4189 2.6875 23.924V16.628Z" fill="#F4F2E4"/>
<path d="M6.01835 12.724C6.01835 13.6076 5.302 14.324 4.41836 14.324C3.5347 14.324 2.81836 13.6076 2.81836 12.724C2.81836 11.8403 3.5347 11.124 4.41836 11.124C5.302 11.124 6.01835 11.8403 6.01835 12.724Z" fill="#E6BF00"/>
<path d="M14.3379 14.452C14.3379 13.9571 14.739 13.556 15.2339 13.556H16.7699C17.2647 13.556 17.6659 13.9571 17.6659 14.452V28.276C17.6659 28.7708 17.2647 29.172 16.7699 29.172H15.2339C14.739 29.172 14.3379 28.7708 14.3379 28.276V14.452Z" fill="#F4F2E4"/>
<path d="M17.5379 10.42C17.5379 11.3037 16.8215 12.02 15.9379 12.02C15.0542 12.02 14.3379 11.3037 14.3379 10.42C14.3379 9.53637 15.0542 8.82002 15.9379 8.82002C16.8215 8.82002 17.5379 9.53637 17.5379 10.42Z" fill="#E6BF00"/>
<path d="M20.0977 9.33197C20.0977 8.83712 20.4988 8.43597 20.9937 8.43597H22.5297C23.0245 8.43597 23.4257 8.83712 23.4257 9.33197V25.844C23.4257 26.3388 23.0245 26.74 22.5297 26.74H20.9937C20.4988 26.74 20.0977 26.3388 20.0977 25.844V9.33197Z" fill="#F4F2E4"/>
<path d="M23.4246 5.30003C23.4246 6.18368 22.7083 6.90003 21.8246 6.90003C20.941 6.90003 20.2246 6.18368 20.2246 5.30003C20.2246 4.41637 20.941 3.70003 21.8246 3.70003C22.7083 3.70003 23.4246 4.41637 23.4246 5.30003Z" fill="#E6BF00"/>
<path d="M25.9844 15.988C25.9844 15.4931 26.3855 15.092 26.8804 15.092H28.4164C28.9112 15.092 29.3124 15.4931 29.3124 15.988V26.612C29.3124 27.1068 28.9112 27.508 28.4164 27.508H26.8804C26.3855 27.508 25.9844 27.1068 25.9844 26.612V15.988Z" fill="#F4F2E4"/>
<path d="M29.1844 12.084C29.1844 12.9676 28.468 13.684 27.5844 13.684C26.7007 13.684 25.9844 12.9676 25.9844 12.084C25.9844 11.2003 26.7007 10.484 27.5844 10.484C28.468 10.484 29.1844 11.2003 29.1844 12.084Z" fill="#E6BF00"/>
<path d="M8.44727 13.428C8.44727 12.9332 8.84842 12.532 9.34327 12.532H10.8793C11.3741 12.532 11.7753 12.9332 11.7753 13.428V23.924C11.7753 24.4189 11.3741 24.82 10.8793 24.82H9.34327C8.84842 24.82 8.44727 24.4189 8.44727 23.924V13.428Z" fill="#F4F2E4"/>
<path d="M11.7781 27.7C11.7781 28.5837 11.0618 29.3 10.1781 29.3C9.29447 29.3 8.57812 28.5837 8.57812 27.7C8.57812 26.8164 9.29447 26.1 10.1781 26.1C11.0618 26.1 11.7781 26.8164 11.7781 27.7Z" fill="#E6BF00"/>
</svg>
