<svg width="96" height="97" viewBox="0 0 96 97" fill="none" xmlns="http://www.w3.org/2000/svg">
<circle cx="48" cy="48.5" r="48" fill="white" fill-opacity="0.65"/>
<path d="M62.5457 25.5447C62.9636 25.718 63.3209 26.0112 63.5723 26.3874C63.8238 26.7636 63.9582 27.2058 63.9585 27.6583V31.8487H68.1467C68.5995 31.8488 69.0421 31.9831 69.4186 32.2348C69.7951 32.4864 70.0885 32.844 70.2618 33.2623C70.435 33.6807 70.4804 34.141 70.3921 34.5851C70.3037 35.0293 70.0857 35.4372 69.7656 35.7575L61.6664 43.8475C61.237 44.277 60.6547 44.5183 60.0474 44.5185H54.522L50.3362 48.7066C49.9065 49.1363 49.3237 49.3777 48.7161 49.3777C48.1084 49.3777 47.5257 49.1363 47.096 48.7066C46.6664 48.2769 46.425 47.6942 46.425 47.0865C46.425 46.4789 46.6664 45.8961 47.096 45.4665L51.2842 41.2829V35.7552C51.2839 35.4541 51.3431 35.156 51.4582 34.8778C51.5733 34.5996 51.7422 34.3468 51.9551 34.134L60.0497 26.0393C60.37 25.7189 60.778 25.5007 61.2223 25.4122C61.6666 25.3238 62.1271 25.3691 62.5457 25.5424V25.5447Z" fill="#A58C09"/>
<path d="M47.6525 25.2539C49.7042 25.2539 51.6918 25.5241 53.5832 26.0302L48.7149 30.8961C48.3456 31.2669 48.0199 31.6787 47.7441 32.1235H47.6525C44.4822 32.1235 41.3832 33.0636 38.7472 34.8248C36.1113 36.5861 34.0568 39.0895 32.8436 42.0184C31.6304 44.9473 31.313 48.1702 31.9315 51.2796C32.5499 54.3889 34.0766 57.245 36.3183 59.4867C38.5599 61.7284 41.416 63.255 44.5254 63.8735C47.6347 64.4919 50.8576 64.1745 53.7865 62.9613C56.7154 61.7481 59.2188 59.6936 60.9801 57.0577C62.7414 54.4217 63.6814 51.3227 63.6814 48.1525V48.0609C64.1241 47.7861 64.5325 47.4617 64.9065 47.0877L69.7747 42.2217C70.2808 44.1132 70.551 46.1007 70.551 48.1525C70.551 60.7993 60.2993 71.051 47.6525 71.051C35.0056 71.051 24.7539 60.7993 24.7539 48.1525C24.7539 35.5056 35.0056 25.2539 47.6525 25.2539Z" fill="#008080"/>
<path d="M46.7045 36.7421C46.7045 38.6908 46.6083 40.6669 46.7136 42.6133L45.4771 43.8498C45.0517 44.2752 44.7143 44.7801 44.4841 45.3359C44.2539 45.8916 44.1355 46.4873 44.1355 47.0888C44.1355 47.6904 44.2539 48.286 44.4841 48.8418C44.7143 49.3975 45.0517 49.9025 45.4771 50.3278C45.9024 50.7532 46.4074 51.0906 46.9632 51.3208C47.5189 51.551 48.1146 51.6695 48.7161 51.6695C49.3176 51.6695 49.9133 51.551 50.469 51.3208C51.0248 51.0906 51.5297 50.7532 51.9551 50.3278L53.1916 49.0913C55.138 49.1966 57.1119 49.1005 59.0628 49.1005C58.8819 51.2766 58.0825 53.3556 56.7588 55.0923C55.4351 56.8291 53.6424 58.151 51.5921 58.9023C49.5417 59.6536 47.3193 59.8029 45.1869 59.3326C43.0545 58.8623 41.1011 57.792 39.557 56.2479C38.0129 54.7038 36.9426 52.7504 36.4723 50.618C36.002 48.4856 36.1513 46.2632 36.9026 44.2128C37.6539 42.1625 38.9759 40.3698 40.7126 39.0461C42.4493 37.7224 44.5283 36.923 46.7045 36.7421Z" fill="#008080"/>
</svg>
