<svg width="277" height="277" viewBox="0 0 277 277" fill="none" xmlns="http://www.w3.org/2000/svg">
<g opacity="0.07">
<path d="M138.5 43.2812C132.761 43.2812 127.256 45.5612 123.198 49.6196C119.139 53.678 116.859 59.1824 116.859 64.9219C116.859 70.6613 119.139 76.1657 123.198 80.2241C127.256 84.2825 132.761 86.5625 138.5 86.5625C144.239 86.5625 149.744 84.2825 153.802 80.2241C157.861 76.1657 160.141 70.6613 160.141 64.9219C160.141 59.1824 157.861 53.678 153.802 49.6196C149.744 45.5612 144.239 43.2812 138.5 43.2812ZM99.5469 64.9219C99.5469 54.5909 103.651 44.683 110.956 37.3779C118.261 30.0727 128.169 25.9688 138.5 25.9688C148.831 25.9688 158.739 30.0727 166.044 37.3779C173.349 44.683 177.453 54.5909 177.453 64.9219C177.453 75.2529 173.349 85.1608 166.044 92.4659C158.739 99.771 148.831 103.875 138.5 103.875C128.169 103.875 118.261 99.771 110.956 92.4659C103.651 85.1608 99.5469 75.2529 99.5469 64.9219ZM51.9375 69.25C47.3459 69.25 42.9424 71.074 39.6957 74.3207C36.449 77.5674 34.625 81.9709 34.625 86.5625C34.625 91.1541 36.449 95.5576 39.6957 98.8043C42.9424 102.051 47.3459 103.875 51.9375 103.875C56.5291 103.875 60.9326 102.051 64.1793 98.8043C67.426 95.5576 69.25 91.1541 69.25 86.5625C69.25 81.9709 67.426 77.5674 64.1793 74.3207C60.9326 71.074 56.5291 69.25 51.9375 69.25ZM17.3125 86.5625C17.3125 77.3794 20.9605 68.5724 27.4539 62.0789C33.9474 55.5855 42.7544 51.9375 51.9375 51.9375C61.1206 51.9375 69.9276 55.5855 76.4211 62.0789C82.9145 68.5724 86.5625 77.3794 86.5625 86.5625C86.5625 95.7456 82.9145 104.553 76.4211 111.046C69.9276 117.54 61.1206 121.188 51.9375 121.188C42.7544 121.188 33.9474 117.54 27.4539 111.046C20.9605 104.553 17.3125 95.7456 17.3125 86.5625ZM207.75 86.5625C207.75 81.9709 209.574 77.5674 212.821 74.3207C216.067 71.074 220.471 69.25 225.062 69.25C229.654 69.25 234.058 71.074 237.304 74.3207C240.551 77.5674 242.375 81.9709 242.375 86.5625C242.375 91.1541 240.551 95.5576 237.304 98.8043C234.058 102.051 229.654 103.875 225.062 103.875C220.471 103.875 216.067 102.051 212.821 98.8043C209.574 95.5576 207.75 91.1541 207.75 86.5625ZM225.062 51.9375C215.879 51.9375 207.072 55.5855 200.579 62.0789C194.085 68.5724 190.438 77.3794 190.438 86.5625C190.438 95.7456 194.085 104.553 200.579 111.046C207.072 117.54 215.879 121.188 225.062 121.188C234.246 121.188 243.053 117.54 249.546 111.046C256.04 104.553 259.688 95.7456 259.688 86.5625C259.688 77.3794 256.04 68.5724 249.546 62.0789C243.053 55.5855 234.246 51.9375 225.062 51.9375ZM73.5781 142.828C73.5781 140.901 73.7311 139.022 74.0369 137.193L33.3525 148.091C27.8096 149.578 23.0843 153.206 20.2159 158.176C17.3474 163.147 16.5709 169.053 18.0569 174.597L25.8995 203.855C27.7925 210.924 31.1581 217.513 35.7757 223.191C40.3933 228.868 46.1586 233.506 52.6938 236.8C59.229 240.093 66.3864 241.969 73.697 242.303C81.0077 242.637 88.3064 241.423 95.1149 238.739C90.4355 234.539 86.3912 229.681 83.1087 224.318C74.4522 226.116 65.4359 224.534 57.9083 219.897C50.3807 215.26 44.912 207.919 42.6234 199.379L34.7808 170.121C34.6328 169.572 34.5945 168.999 34.6679 168.436C34.7414 167.872 34.9253 167.328 35.2091 166.835C35.4929 166.342 35.871 165.91 36.3218 165.564C36.7726 165.217 37.2873 164.963 37.8365 164.815L73.5781 155.241V142.828ZM187.468 240.583C185.571 240.078 183.704 239.465 181.876 238.748C186.559 234.548 190.606 229.69 193.891 224.327C202.546 226.119 211.559 224.534 219.083 219.896C226.607 215.257 232.073 207.917 234.359 199.379L242.193 170.113C242.49 169.005 242.334 167.825 241.761 166.832C241.188 165.838 240.245 165.113 239.138 164.815L203.422 155.241V142.828C203.422 140.912 203.269 139.037 202.963 137.202L243.621 148.091C249.164 149.578 253.89 153.206 256.758 158.176C259.627 163.147 260.403 169.053 258.917 174.597L251.075 203.855C247.51 217.16 238.806 228.504 226.878 235.392C214.95 242.28 200.774 244.147 187.468 240.583ZM108.203 121.188C102.464 121.188 96.9593 123.467 92.9009 127.526C88.8425 131.584 86.5625 137.089 86.5625 142.828V190.438C86.5625 204.212 92.0345 217.423 101.775 227.163C111.515 236.903 124.725 242.375 138.5 242.375C152.275 242.375 165.485 236.903 175.225 227.163C184.966 217.423 190.438 204.212 190.438 190.438V142.828C190.438 137.089 188.158 131.584 184.099 127.526C180.041 123.467 174.536 121.188 168.797 121.188H108.203ZM103.875 142.828C103.875 141.68 104.331 140.579 105.143 139.768C105.954 138.956 107.055 138.5 108.203 138.5H168.797C169.945 138.5 171.046 138.956 171.857 139.768C172.669 140.579 173.125 141.68 173.125 142.828V190.438C173.125 199.621 169.477 208.428 162.984 214.921C156.49 221.415 147.683 225.062 138.5 225.062C129.317 225.062 120.51 221.415 114.016 214.921C107.523 208.428 103.875 199.621 103.875 190.438V142.828Z" fill="#7B7B7B"/>
</g>
</svg>
