<svg width="100" height="100" viewBox="0 0 100 100" fill="none" xmlns="http://www.w3.org/2000/svg">
<path fill-rule="evenodd" clip-rule="evenodd" d="M44.4757 17.9132C45.9409 16.4481 47.928 15.625 50 15.625C52.072 15.625 54.0591 16.4481 55.5243 17.9132C56.9894 19.3784 57.8125 21.3655 57.8125 23.4375C57.8125 25.5095 56.9894 27.4966 55.5243 28.9618C54.0591 30.4269 52.072 31.25 50 31.25C47.928 31.25 45.9409 30.4269 44.4757 28.9618C43.0106 27.4966 42.1875 25.5095 42.1875 23.4375C42.1875 21.3655 43.0106 19.3784 44.4757 17.9132ZM40.0563 13.4938C37.4191 16.131 35.9375 19.7079 35.9375 23.4375C35.9375 27.1671 37.4191 30.744 40.0563 33.3812C42.6935 36.0184 46.2704 37.5 50 37.5C53.7296 37.5 57.3065 36.0184 59.9437 33.3812C62.5809 30.744 64.0625 27.1671 64.0625 23.4375C64.0625 19.7079 62.5809 16.131 59.9437 13.4938C57.3065 10.8566 53.7296 9.375 50 9.375C46.2704 9.375 42.6935 10.8566 40.0563 13.4938ZM14.3306 26.8306C15.5027 25.6585 17.0924 25 18.75 25C20.4076 25 21.9973 25.6585 23.1694 26.8306C24.3415 28.0027 25 29.5924 25 31.25C25 32.9076 24.3415 34.4973 23.1694 35.6694C21.9973 36.8415 20.4076 37.5 18.75 37.5C17.0924 37.5 15.5027 36.8415 14.3306 35.6694C13.1585 34.4973 12.5 32.9076 12.5 31.25C12.5 29.5924 13.1585 28.0027 14.3306 26.8306ZM9.91117 22.4112C7.56696 24.7554 6.25 27.9348 6.25 31.25C6.25 34.5652 7.56696 37.7446 9.91117 40.0888C12.2554 42.433 15.4348 43.75 18.75 43.75C22.0652 43.75 25.2446 42.433 27.5888 40.0888C29.933 37.7446 31.25 34.5652 31.25 31.25C31.25 27.9348 29.933 24.7554 27.5888 22.4112C25.2446 20.067 22.0652 18.75 18.75 18.75C15.4348 18.75 12.2554 20.067 9.91117 22.4112ZM76.8306 26.8306C75.6585 28.0027 75 29.5924 75 31.25C75 32.9076 75.6585 34.4973 76.8306 35.6694C78.0027 36.8415 79.5924 37.5 81.25 37.5C82.9076 37.5 84.4973 36.8415 85.6694 35.6694C86.8415 34.4973 87.5 32.9076 87.5 31.25C87.5 29.5924 86.8415 28.0027 85.6694 26.8306C84.4973 25.6585 82.9076 25 81.25 25C79.5924 25 78.0027 25.6585 76.8306 26.8306ZM72.4112 22.4112C74.7554 20.067 77.9348 18.75 81.25 18.75C84.5652 18.75 87.7446 20.067 90.0888 22.4112C92.433 24.7554 93.75 27.9348 93.75 31.25C93.75 34.5652 92.433 37.7446 90.0888 40.0888C87.7446 42.433 84.5652 43.75 81.25 43.75C77.9348 43.75 74.7554 42.433 72.4112 40.0888C70.067 37.7446 68.75 34.5652 68.75 31.25C68.75 27.9348 70.067 24.7554 72.4112 22.4112ZM26.7281 49.5281C26.6177 50.1885 26.5625 50.8667 26.5625 51.5625V56.0437L13.6594 59.5C13.4611 59.5533 13.2753 59.6451 13.1126 59.7702C12.9498 59.8954 12.8133 60.0513 12.7109 60.2292C12.6084 60.4071 12.542 60.6035 12.5155 60.807C12.489 61.0106 12.5028 61.2174 12.5563 61.4156L15.3875 71.9781C16.2137 75.0611 18.188 77.7112 20.9055 79.3852C23.6231 81.0592 26.878 81.6302 30.0031 80.9812C31.1882 82.9174 32.6482 84.6711 34.3375 86.1875C31.8796 87.1563 29.2446 87.5948 26.6054 87.4741C23.9662 87.3534 21.3823 86.6763 19.023 85.4873C16.6638 84.2982 14.5824 82.624 12.9154 80.5743C11.2484 78.5246 10.0334 76.1458 9.35 73.5937L6.51875 63.0312C5.98226 61.0301 6.26262 58.8978 7.29814 57.1034C8.33367 55.3089 10.0396 53.9993 12.0406 53.4625L26.7281 49.5281ZM65.6594 86.1906C66.3192 86.4494 66.9932 86.6706 67.6781 86.8531C72.4814 88.1397 77.5991 87.4655 81.9054 84.979C86.2116 82.4924 89.3538 78.397 90.6406 73.5937L93.4719 63.0312C94.0084 61.0301 93.728 58.8978 92.6925 57.1034C91.657 55.3089 89.951 53.9993 87.95 53.4625L73.2719 49.5312C73.3823 50.1937 73.4375 50.8708 73.4375 51.5625V56.0437L86.3312 59.5C86.7309 59.6076 87.0716 59.8695 87.2784 60.2281C87.4853 60.5866 87.5413 61.0126 87.4344 61.4125L84.6062 71.9781C83.7807 75.0604 81.8077 77.7102 79.0914 79.3847C76.3752 81.0592 73.1215 81.6315 69.9969 80.9844C68.8109 82.9207 67.3498 84.6745 65.6594 86.1906Z" fill="#FFD300"/>
<path fill-rule="evenodd" clip-rule="evenodd" d="M39.0625 43.75C36.9905 43.75 35.0034 44.5731 33.5382 46.0382C32.0731 47.5034 31.25 49.4905 31.25 51.5625V68.75C31.25 73.7228 33.2254 78.492 36.7417 82.0083C40.2581 85.5246 45.0272 87.5 50 87.5C54.9728 87.5 59.7419 85.5246 63.2583 82.0083C66.7746 78.492 68.75 73.7228 68.75 68.75V51.5625C68.75 49.4905 67.9269 47.5034 66.4618 46.0382C64.9966 44.5731 63.0095 43.75 60.9375 43.75H39.0625ZM37.9576 50.4576C37.6646 50.7507 37.5 51.1481 37.5 51.5625V68.75C37.5 72.0652 38.817 75.2446 41.1612 77.5888C43.5054 79.933 46.6848 81.25 50 81.25C53.3152 81.25 56.4946 79.933 58.8388 77.5888C61.183 75.2446 62.5 72.0652 62.5 68.75V51.5625C62.5 51.1481 62.3354 50.7507 62.0424 50.4576C61.7493 50.1646 61.3519 50 60.9375 50H39.0625C38.6481 50 38.2507 50.1646 37.9576 50.4576Z" fill="#474A4F"/>
</svg>
