<svg width="32" height="33" viewBox="0 0 32 33" fill="none" xmlns="http://www.w3.org/2000/svg">
                    <path d="M24.3233 20.5746L19.8964 18.5937C19.7248 18.5194 19.5374 18.4891 19.3511 18.5054C19.1648 18.5218 18.9855 18.5843 18.8295 18.6874C18.817 18.6953 18.8051 18.7041 18.7939 18.7137L16.4689 20.6956C16.4171 20.7271 16.3584 20.7454 16.2979 20.7489C16.2374 20.7523 16.177 20.7407 16.122 20.7152C14.5995 19.9802 13.0235 18.4165 12.2885 16.9118C12.2625 16.8572 12.2504 16.797 12.2534 16.7367C12.2563 16.6763 12.2742 16.6176 12.3054 16.5658L14.2929 14.2024C14.3023 14.1911 14.3107 14.1789 14.3192 14.1667C14.4219 14.0109 14.4843 13.832 14.5006 13.6461C14.517 13.4602 14.4868 13.2731 14.4129 13.1017L12.4282 8.68229C12.3324 8.45846 12.1665 8.27175 11.9556 8.15021C11.7446 8.02866 11.4999 7.97884 11.2582 8.00822C10.0784 8.16378 8.99557 8.74348 8.21196 9.63906C7.42835 10.5346 6.99754 11.6848 7.00001 12.8748C7.00001 20.1124 12.8876 26 20.1252 26C21.3152 26.0025 22.4654 25.5717 23.3609 24.788C24.2565 24.0044 24.8362 22.9216 24.9918 21.7418C25.0209 21.5012 24.9716 21.2576 24.8512 21.0473C24.7307 20.837 24.5456 20.6712 24.3233 20.5746ZM24.2502 21.6481C24.1178 22.6472 23.6261 23.5639 22.8669 24.2269C22.1077 24.8898 21.133 25.2535 20.1252 25.25C13.302 25.25 7.75002 19.698 7.75002 12.8748C7.74653 11.867 8.11024 10.8923 8.77315 10.1331C9.43606 9.37394 10.3528 8.88218 11.3519 8.7498C11.3669 8.74889 11.3819 8.74889 11.3969 8.7498C11.4709 8.75043 11.5431 8.77293 11.6043 8.81446C11.6655 8.856 11.7131 8.91472 11.741 8.98324L13.7201 13.4027C13.7432 13.4567 13.7533 13.5154 13.7495 13.574C13.7458 13.6326 13.7283 13.6895 13.6985 13.7402L11.7119 16.1027C11.7026 16.1149 11.6932 16.1261 11.6848 16.1393C11.5789 16.3011 11.5166 16.4875 11.5038 16.6805C11.491 16.8734 11.5281 17.0664 11.6116 17.2408C12.4263 18.9087 14.1063 20.5765 15.7929 21.3912C15.9685 21.4742 16.1626 21.5103 16.3563 21.496C16.55 21.4817 16.7367 21.4175 16.8982 21.3096L16.9329 21.2834L19.2608 19.3034C19.3106 19.2729 19.3669 19.2548 19.4251 19.2504C19.4833 19.246 19.5417 19.2555 19.5955 19.278L24.0215 21.2618C24.0961 21.2929 24.1588 21.3473 24.2 21.4169C24.2412 21.4865 24.2588 21.5676 24.2502 21.6481Z" fill="white"/>
                    </svg>