<svg width="32" height="32" viewBox="0 0 32 32" fill="none" xmlns="http://www.w3.org/2000/svg">
<path d="M17.8537 29.1905C23.2212 25.4095 25.905 20.856 25.905 15.53C25.905 13.873 25.6427 13.0445 25.1182 13.0445L24.5783 13.205C24.1538 13.385 23.8102 13.475 23.5475 13.475C22.0095 13.475 20.7256 12.86 19.6957 11.63C18.6659 10.4 18.1505 8.88198 18.1496 7.07598C18.1505 5.33998 18.7072 3.86648 19.8198 2.65548C20.9324 1.44548 22.2741 0.840483 23.8448 0.840483C26.0372 0.840483 27.8461 1.83198 29.2713 3.81498C30.693 5.79498 31.4038 8.28348 31.4038 11.2805C31.4047 14.6705 30.8002 17.772 29.5904 20.585C28.3778 23.397 26.529 25.9395 24.0438 28.2125C21.5569 30.4835 19.9698 31.6195 19.2826 31.6205C18.8245 31.6205 18.4482 31.3775 18.1537 30.8915C17.8592 30.4065 17.7119 29.984 17.7119 29.624L17.8578 29.192L17.8537 29.1905ZM0.183207 29.1905C5.55071 25.4105 8.23401 20.8565 8.2331 15.5285C8.2331 13.8715 7.97086 13.043 7.44638 13.043L6.90645 13.2035C6.48196 13.3835 6.13836 13.4735 5.87567 13.4735C4.3704 13.4735 3.09466 12.8585 2.04843 11.6285C1.00038 10.4005 0.476805 8.88248 0.477715 7.07448C0.478622 5.33848 1.03537 3.86498 2.14796 2.65398C3.26054 1.44398 4.60219 0.838984 6.1729 0.838984C8.36535 0.838984 10.1742 1.83048 11.5995 3.81348C13.0211 5.79348 13.7319 8.28198 13.7319 11.279C13.7338 14.705 13.1202 17.833 11.8913 20.663C10.6642 23.494 8.81575 26.0275 6.34607 28.2635C3.87183 30.5005 2.29249 31.619 1.60803 31.619C1.14899 31.619 0.771769 31.376 0.476351 30.89C0.182753 30.404 0.0359516 29.981 0.0359516 29.621L0.183207 29.1905Z" fill="black"/>
</svg>
