<svg width="32" height="32" viewBox="0 0 32 32" fill="none" xmlns="http://www.w3.org/2000/svg">
<path d="M13.7772 2.80949C8.40965 6.59049 5.7259 11.144 5.7259 16.47C5.7259 18.127 5.98814 18.9555 6.51262 18.9555L7.05255 18.795C7.47705 18.615 7.82064 18.525 8.08333 18.525C9.62132 18.525 10.9052 19.14 11.9351 20.37C12.965 21.6 13.4804 23.118 13.4813 24.924C13.4804 26.66 12.9236 28.1335 11.811 29.3445C10.6985 30.5545 9.35681 31.1595 7.7861 31.1595C5.59365 31.1595 3.78478 30.168 2.35951 28.185C0.937871 26.205 0.227052 23.7165 0.227052 20.7195C0.226143 17.3295 0.830612 14.228 2.04046 11.415C3.25303 8.60299 5.10189 6.06049 7.58703 3.78749C10.074 1.51649 11.6611 0.380486 12.3482 0.379486C12.8064 0.379486 13.1827 0.622486 13.4772 1.10849C13.7717 1.59349 13.919 2.01599 13.919 2.37599L13.7731 2.80799L13.7772 2.80949ZM31.4477 2.80949C26.0801 6.58949 23.3969 11.1435 23.3978 16.4715C23.3978 18.1285 23.66 18.957 24.1845 18.957L24.7244 18.7965C25.1489 18.6165 25.4925 18.5265 25.7552 18.5265C27.2605 18.5265 28.5362 19.1415 29.5824 20.3715C30.6305 21.5995 31.1541 23.1175 31.1531 24.9255C31.1522 26.6615 30.5955 28.135 29.4829 29.346C28.3703 30.556 27.0287 31.161 25.458 31.161C23.2655 31.161 21.4566 30.1695 20.0314 28.1865C18.6097 26.2065 17.8989 23.718 17.8989 20.721C17.8971 17.295 18.5107 14.167 19.7396 11.337C20.9667 8.50599 22.8151 5.97249 25.2848 3.73649C27.759 1.49949 29.3384 0.380987 30.0228 0.380987C30.4819 0.380987 30.8591 0.623986 31.1545 1.10999C31.4481 1.59599 31.5949 2.01899 31.5949 2.37899L31.4477 2.80949Z" fill="black"/>
</svg>
