<svg width="80" height="80" viewBox="0 0 80 80" fill="none" xmlns="http://www.w3.org/2000/svg">
<path d="M70 23.8734C70 20.3967 70 18.6567 69.0567 17.3467C68.1133 16.0367 66.4633 15.4867 63.1633 14.3867L59.28 13.0934C54.7233 11.5734 52.4467 10.8134 50.15 11.1234C47.8567 11.4301 45.8567 12.7601 41.86 15.4234L37.2533 18.4967C34.1333 20.5767 32.5733 21.6167 30.82 22.0301C30.1782 22.1833 29.5228 22.2726 28.8633 22.2967C27.0633 22.3567 25.2867 21.7634 21.73 20.5767C17.07 19.0234 14.74 18.2467 12.9667 19.0367C12.3382 19.3163 11.7743 19.7226 11.31 20.2301C10 21.6667 10 24.1201 10 29.0334V42.5834M70 36.6667V50.9667C70 55.8801 70 58.3367 68.69 59.7667C68.2264 60.2766 67.6624 60.6852 67.0333 60.9667C65.26 61.7534 62.93 60.9767 58.27 59.4234C54.7133 58.2367 52.9367 57.6434 51.1367 57.7067C50.4763 57.7284 49.8198 57.8155 49.1767 57.9667C47.4267 58.3834 45.8667 59.4234 42.7467 61.5001L38.14 64.5734C34.14 67.2401 32.1433 68.5734 29.85 68.8767C27.5567 69.1867 25.2767 68.4267 20.72 66.9067L16.8367 65.6134C13.5367 64.5134 11.8867 63.9634 10.9433 62.6534C10.05 61.4134 10.0033 59.7867 10 56.6667M50 11.6667V23.3334M50 56.6667V36.6667M30 68.3334V56.6667M30 23.3334V43.3334" stroke="white" stroke-width="2" stroke-linecap="round"/>
</svg>
