<svg width="414" height="278" viewBox="0 0 414 278" fill="none" xmlns="http://www.w3.org/2000/svg">
<g opacity="0.07">
<path d="M282.57 25.0498C284.676 25.9232 286.477 27.4012 287.744 29.2972C289.012 31.1932 289.689 33.4222 289.691 35.7027V56.824H310.801C313.083 56.8245 315.314 57.5016 317.211 58.7699C319.109 60.0381 320.588 61.8405 321.461 63.9492C322.335 66.0578 322.563 68.3781 322.118 70.6166C321.673 72.8552 320.574 74.9115 318.96 76.5256L278.138 117.302C275.974 119.467 273.038 120.683 269.978 120.684H242.128L221.029 141.794C218.864 143.959 215.926 145.176 212.864 145.176C209.801 145.176 206.864 143.959 204.698 141.794C202.532 139.628 201.316 136.691 201.316 133.628C201.316 130.565 202.532 127.628 204.698 125.462L225.808 104.376V76.5141C225.807 74.9966 226.105 73.4937 226.685 72.0916C227.265 70.6894 228.116 69.4154 229.189 68.3426L269.989 27.5428C271.603 25.9277 273.66 24.8277 275.899 24.3819C278.139 23.9361 280.46 24.1645 282.57 25.0382V25.0498Z" fill="#7B7B7B"/>
<path d="M207.503 23.584C217.844 23.584 227.862 24.9459 237.396 27.4966L212.858 52.0227C210.996 53.8916 209.355 55.9672 207.964 58.209H207.503C191.524 58.209 175.903 62.9473 162.617 71.8248C149.331 80.7023 138.976 93.3203 132.861 108.083C126.746 122.846 125.146 139.09 128.263 154.762C131.381 170.434 139.075 184.83 150.374 196.129C161.673 207.428 176.069 215.123 191.741 218.24C207.413 221.357 223.658 219.757 238.42 213.642C253.183 207.528 265.801 197.172 274.678 183.886C283.556 170.6 288.294 154.98 288.294 139.001V138.539C290.526 137.154 292.584 135.519 294.469 133.634L319.007 109.108C321.557 118.641 322.919 128.659 322.919 139.001C322.919 202.745 271.247 254.417 207.503 254.417C143.758 254.417 92.0859 202.745 92.0859 139.001C92.0859 75.256 143.758 23.584 207.503 23.584Z" fill="#7B7B7B"/>
<path d="M202.724 81.4885C202.724 91.3105 202.24 101.271 202.771 111.081L196.538 117.314C194.394 119.458 192.693 122.003 191.533 124.804C190.373 127.605 189.776 130.608 189.776 133.64C189.776 136.672 190.373 139.674 191.533 142.475C192.693 145.276 194.394 147.821 196.538 149.965C198.682 152.109 201.227 153.81 204.028 154.97C206.829 156.13 209.832 156.728 212.864 156.728C215.896 156.728 218.898 156.13 221.699 154.97C224.5 153.81 227.045 152.109 229.189 149.965L235.422 143.733C245.232 144.264 255.181 143.779 265.015 143.779C264.103 154.747 260.074 165.226 253.402 173.98C246.73 182.734 237.694 189.397 227.36 193.184C217.025 196.971 205.823 197.723 195.075 195.352C184.327 192.982 174.481 187.587 166.699 179.805C158.916 172.022 153.521 162.176 151.151 151.428C148.78 140.68 149.533 129.478 153.32 119.144C157.106 108.809 163.77 99.7733 172.523 93.1015C181.277 86.4296 191.756 82.4003 202.724 81.4885Z" fill="#7B7B7B"/>
</g>
</svg>
