<svg width="100" height="100" viewBox="0 0 100 100" fill="none" xmlns="http://www.w3.org/2000/svg">
<path d="M49.6667 8C53.4 8 57.0167 8.49167 60.4583 9.4125L51.6 18.2667C50.928 18.9414 50.3352 19.6907 49.8333 20.5H49.6667C43.898 20.5 38.259 22.2106 33.4625 25.4155C28.6661 28.6203 24.9277 33.1756 22.7202 38.5051C20.5126 43.8346 19.935 49.699 21.0604 55.3568C22.1858 61.0146 24.9637 66.2116 29.0427 70.2906C33.1218 74.3697 38.3188 77.1475 43.9765 78.2729C49.6343 79.3983 55.4988 78.8207 60.8283 76.6132C66.1578 74.4056 70.713 70.6672 73.9179 65.8708C77.1227 61.0744 78.8333 55.4353 78.8333 49.6667V49.5C79.6389 49 80.382 48.4097 81.0625 47.7292L89.9208 38.875C90.8417 42.3167 91.3333 45.9333 91.3333 49.6667C91.3333 72.6792 72.6792 91.3333 49.6667 91.3333C26.6542 91.3333 8 72.6792 8 49.6667C8 26.6542 26.6542 8 49.6667 8Z" fill="#FFD300"/>
<path d="M47.9417 28.9042C47.9417 32.45 47.7667 36.0458 47.9583 39.5875L45.7083 41.8375C44.9344 42.6115 44.3204 43.5303 43.9015 44.5416C43.4827 45.5528 43.2671 46.6367 43.2671 47.7313C43.2671 48.8258 43.4827 49.9097 43.9015 50.9209C44.3204 51.9322 44.9344 52.851 45.7083 53.625C46.4823 54.399 47.4012 55.0129 48.4124 55.4318C49.4237 55.8507 50.5075 56.0663 51.6021 56.0663C52.6967 56.0663 53.7805 55.8507 54.7918 55.4318C55.803 55.0129 56.7219 54.399 57.4958 53.625L59.7458 51.375C63.2875 51.5667 66.8792 51.3917 70.4292 51.3917C70.1 55.3514 68.6454 59.1345 66.2368 62.2946C63.8282 65.4548 60.5661 67.8603 56.8353 69.2273C53.1044 70.5944 49.0605 70.8661 45.1803 70.0103C41.3002 69.1545 37.7457 67.2069 34.936 64.3973C32.1264 61.5877 30.1789 58.0332 29.3231 54.153C28.4673 50.2729 28.7389 46.2289 30.106 42.4981C31.4731 38.7672 33.8785 35.5052 37.0387 33.0966C40.1989 30.688 43.9819 29.2333 47.9417 28.9042Z" fill="#FFD300"/>
<path d="M76.7667 8.52917C77.5272 8.8445 78.1773 9.37807 78.6348 10.0625C79.0924 10.747 79.3369 11.5517 79.3375 12.375V20H86.9584C87.7823 20.0002 88.5877 20.2446 89.2728 20.7025C89.9578 21.1603 90.4917 21.811 90.807 22.5723C91.1223 23.3335 91.2048 24.1712 91.0441 24.9793C90.8834 25.7874 90.4867 26.5298 89.9042 27.1125L75.1667 41.8333C74.3855 42.6148 73.3258 43.0539 72.2208 43.0542H62.1667L54.55 50.675C53.7682 51.4568 52.7078 51.8961 51.6021 51.8961C50.4964 51.8961 49.436 51.4568 48.6542 50.675C47.8723 49.8932 47.4331 48.8328 47.4331 47.7271C47.4331 46.6214 47.8723 45.561 48.6542 44.7792L56.275 37.1667V27.1083C56.2746 26.5605 56.3822 26.018 56.5917 25.5118C56.8012 25.0056 57.1084 24.5457 57.4958 24.1583L72.225 9.42917C72.8077 8.84611 73.5502 8.44899 74.3587 8.28805C75.1671 8.1271 76.0051 8.20956 76.7667 8.525V8.52917Z" fill="#474A4F"/>
</svg>
