<svg width="415" height="278" viewBox="0 0 415 278" fill="none" xmlns="http://www.w3.org/2000/svg">
<g opacity="0.07" clip-path="url(#clip0_1178_1291)">
<path d="M128.182 135.754C127.034 133.766 125.145 132.316 122.928 131.721C120.711 131.127 118.349 131.437 116.361 132.584L89.4669 148.094C86.9491 149.537 84.7497 151.475 83.0016 153.791C81.2535 156.108 79.9929 158.754 79.2958 161.571C77.954 167.156 78.8368 173.045 81.7575 177.991L84.1163 182.07C86.9879 187.036 91.7134 190.658 97.2543 192.141C102.795 193.624 108.698 192.847 113.667 189.98L140.539 174.491C141.524 173.923 142.388 173.166 143.081 172.265C143.774 171.363 144.282 170.334 144.577 169.235C144.872 168.137 144.948 166.991 144.8 165.864C144.652 164.736 144.283 163.649 143.715 162.664L128.182 135.754Z" fill="#7B7B7B"/>
<path d="M291.627 238.98L240.706 137.919C240.582 137.672 240.558 137.387 240.637 137.122C240.717 136.858 240.894 136.633 241.134 136.496L245.624 133.904C246.609 133.336 247.472 132.579 248.165 131.677C248.857 130.775 249.365 129.746 249.659 128.648C249.954 127.549 250.029 126.404 249.88 125.277C249.732 124.149 249.363 123.062 248.794 122.078L223.08 77.5357C222.512 76.5504 221.756 75.6866 220.854 74.9937C219.952 74.3008 218.923 73.7923 217.825 73.4974C216.726 73.2025 215.581 73.1269 214.453 73.2749C213.326 73.4229 212.238 73.7916 211.253 74.36L164.52 101.303C162.053 102.716 159.891 104.605 158.159 106.86C156.427 109.114 155.16 111.69 154.43 114.438C153.934 116.154 153.685 117.932 153.689 119.719C153.722 123.83 158.667 132 163.492 140.429C168.681 149.491 173.902 158.758 177.743 161.069C180.188 162.54 184.505 163.72 188.136 163.72H188.59L145.677 256.558C145.199 257.59 144.929 258.706 144.882 259.843C144.836 260.979 145.014 262.114 145.406 263.182C145.798 264.249 146.397 265.229 147.169 266.065C147.94 266.901 148.868 267.577 149.901 268.054C150.934 268.531 152.05 268.8 153.187 268.846C154.323 268.891 155.458 268.712 156.525 268.318C157.592 267.925 158.572 267.325 159.407 266.553C160.242 265.781 160.917 264.851 161.393 263.818L212.076 154.181C212.448 153.37 213.065 152.695 213.839 152.25L224.232 146.256C224.36 146.183 224.501 146.136 224.647 146.12C224.793 146.103 224.941 146.117 225.082 146.159C225.223 146.202 225.353 146.273 225.466 146.367C225.578 146.462 225.67 146.579 225.736 146.71L276.164 246.798C276.676 247.813 277.382 248.718 278.243 249.46C279.105 250.202 280.103 250.768 281.183 251.124C282.263 251.48 283.402 251.62 284.536 251.536C285.669 251.452 286.775 251.145 287.791 250.634C288.806 250.122 289.711 249.416 290.453 248.555C291.195 247.693 291.76 246.695 292.117 245.615C292.473 244.535 292.613 243.396 292.529 242.262C292.445 241.129 292.138 240.023 291.627 239.007V238.98ZM349.715 63.1177L324.764 19.9771C321.884 15.0189 317.158 11.4031 311.619 9.92078C306.08 8.43846 300.179 9.2103 295.208 12.0674L244.71 41.1633C242.242 42.5759 240.08 44.4645 238.347 46.7194C236.615 48.9743 235.348 51.5507 234.62 54.2991C233.903 56.6165 233.669 59.0562 233.933 61.4676C234.874 68.2952 240.966 77.9145 248.221 90.6229C255.568 103.461 263.862 117.933 268.201 121.066C271.869 123.658 276.25 125.051 280.741 125.053C284.525 125.055 288.243 124.058 291.518 122.164L342.028 93.0521C344.54 91.6125 346.736 89.68 348.483 87.3706C350.229 85.0613 351.492 82.4226 352.193 79.6132C353.545 74.0018 352.656 68.0844 349.715 63.1177Z" fill="#7B7B7B"/>
</g>
<defs>
<clipPath id="clip0_1178_1291">
<rect width="277" height="277" fill="white" transform="translate(70 0.5)"/>
</clipPath>
</defs>
</svg>
