<svg width="107" height="100" viewBox="0 0 107 100" fill="none" xmlns="http://www.w3.org/2000/svg">
<g clip-path="url(#clip0_1178_1316)">
<path d="M22.4758 48.8281C22.0325 48.1106 21.3025 47.5869 20.4462 47.3723C19.5899 47.1577 18.6775 47.2696 17.9095 47.6836L7.52087 53.2832C6.54828 53.804 5.69871 54.5037 5.02344 55.3399C4.34817 56.1761 3.86122 57.1315 3.59197 58.1484C3.07364 60.1648 3.41463 62.2905 4.54285 64.0762L5.45402 65.5488C6.56326 67.3414 8.38863 68.6491 10.529 69.1845C12.6694 69.72 14.9497 69.4393 16.8687 68.4043L27.249 62.8125C27.6296 62.6075 27.9633 62.3345 28.2309 62.0089C28.4986 61.6834 28.695 61.3118 28.8089 60.9153C28.9228 60.5188 28.9521 60.1052 28.8949 59.6981C28.8377 59.2911 28.6953 58.8985 28.4757 58.543L22.4758 48.8281Z" fill="#FFD300"/>
<path fill-rule="evenodd" clip-rule="evenodd" d="M64.8687 49.7866L84.0065 86.2736V86.2834C84.1988 86.6499 84.314 87.0493 84.3456 87.4586C84.3772 87.8679 84.3246 88.2792 84.1907 88.669C84.0568 89.0588 83.8444 89.4194 83.5654 89.7303C83.2864 90.0412 82.9465 90.2963 82.5649 90.481C82.1833 90.6656 81.7676 90.7763 81.3415 90.8067C80.9154 90.837 80.4873 90.7865 80.0815 90.6579C79.6757 90.5293 79.3003 90.3252 78.9767 90.0572C78.653 89.7892 78.3875 89.4626 78.1952 89.0961L59.2424 52.9607C59.2176 52.9132 59.183 52.8711 59.1408 52.8369C59.0985 52.8027 59.0494 52.7772 58.9965 52.7619C58.9436 52.7465 58.888 52.7417 58.8331 52.7476C58.7782 52.7536 58.7251 52.7703 58.6771 52.7966L54.7711 54.9608C54.48 55.1214 54.2483 55.3652 54.1082 55.6581L35.0598 95.2411C34.8809 95.6141 34.6272 95.9496 34.3133 96.2283C33.9993 96.5071 33.6313 96.7237 33.2301 96.8657C32.829 97.0078 32.4027 97.0725 31.9755 97.0561C31.5483 97.0398 31.1287 96.9427 30.7405 96.7705C30.3524 96.5983 30.0035 96.3542 29.7136 96.0524C29.4237 95.7505 29.1986 95.3967 29.0512 95.0112C28.9037 94.6257 28.8368 94.2161 28.8543 93.8058C28.8717 93.3954 28.9732 92.9924 29.1529 92.6198L45.2814 59.1017H45.1106C43.7462 59.1017 42.1236 58.6759 41.2046 58.1446C39.8066 57.337 37.9226 54.1743 36.0342 51.0042C35.9723 50.9004 35.9105 50.7967 35.8487 50.6929C35.6776 50.4058 35.5061 50.1195 35.3357 49.8353C33.7007 47.1063 32.1753 44.5603 32.1643 43.2158C32.1625 42.5709 32.2563 41.929 32.4429 41.3095C32.717 40.3173 33.1934 39.3873 33.8443 38.5732C34.4952 37.7591 35.3078 37.0772 36.235 36.5669L53.7991 26.8397C54.1693 26.6345 54.578 26.5013 55.0017 26.4479C55.4255 26.3945 55.8561 26.4218 56.2689 26.5282C56.6817 26.6347 57.0686 26.8183 57.4075 27.0685C57.7464 27.3186 58.0306 27.6305 58.244 27.9862L67.9085 44.0675C68.1222 44.423 68.2609 44.8154 68.3167 45.2224C68.3725 45.6294 68.3442 46.043 68.2336 46.4395C68.1229 46.836 67.932 47.2077 67.6718 47.5333C67.4116 47.859 67.0871 48.1322 66.717 48.3373L65.0293 49.2729C64.9393 49.3227 64.8726 49.4036 64.8427 49.4991C64.8128 49.5946 64.8221 49.6975 64.8687 49.7866Z" fill="#FFD300"/>
<path d="M105.839 22.7808L96.4608 7.20544C95.3785 5.41535 93.6021 4.10991 91.5204 3.57474C89.4387 3.03957 87.221 3.31824 85.3526 4.34977L66.3733 14.8544C65.4459 15.3645 64.6332 16.0463 63.9822 16.8604C63.3312 17.6745 62.855 18.6047 62.5811 19.597C62.3118 20.4336 62.2239 21.3145 62.3229 22.185C62.6767 24.6501 64.9663 28.123 67.693 32.7112C70.4543 37.3463 73.5714 42.5713 75.2021 43.7022C76.5808 44.6381 78.2273 45.141 79.9154 45.1418C81.3376 45.1423 82.7347 44.7825 83.9659 44.0987L102.949 33.5882C103.894 33.0685 104.719 32.3708 105.375 31.537C106.032 30.7032 106.506 29.7506 106.77 28.7363C107.278 26.7103 106.944 24.5739 105.839 22.7808Z" fill="#474A4F"/>
</g>
<defs>
<clipPath id="clip0_1178_1316">
<rect width="107" height="100" fill="white"/>
</clipPath>
</defs>
</svg>
