<svg width="100" height="100" viewBox="0 0 100 100" fill="none" xmlns="http://www.w3.org/2000/svg">
<path d="M52.9058 59.559C53.1774 56.4855 55.0881 54.0333 58.1431 53.6017C60.8185 53.224 64.9264 52.8984 71.148 52.8984C77.3695 52.8984 81.4775 53.224 84.1529 53.6017C87.2078 54.0333 89.1204 56.4855 89.3883 59.559C89.6287 62.2936 89.7504 65.0373 89.7529 67.7824C89.7529 76.1807 85.3194 84.0395 77.8532 87.8833C75.3583 89.167 72.9229 90.1084 71.148 90.1084C69.373 90.1084 66.9376 89.167 64.4427 87.8833C56.9747 84.0395 52.543 76.1807 52.543 67.7824C52.543 64.6047 52.7123 61.7674 52.9058 59.559Z" stroke="#474A4F" stroke-width="5" stroke-linecap="round" stroke-linejoin="round"/>
<path d="M64.6386 69.2118L70.7671 76.1571L79.5226 63.1336M46.8653 48.858C50.2518 47.1528 53.098 44.5404 55.0865 41.312C57.075 38.0837 58.1276 34.3665 58.1269 30.5749C58.1269 19.2723 48.9639 10.1094 37.6614 10.1094C26.3589 10.1094 17.1959 19.2723 17.1959 30.5749C17.1951 34.3665 18.2477 38.0837 20.2362 41.312C22.2247 44.5404 25.071 47.1528 28.4575 48.858C19.1234 52.0878 12.0516 60.0917 10.219 69.917C9.62738 73.091 11.4749 75.6845 14.6786 76.0994C18.5764 76.6036 25.4881 77.0873 37.6614 77.0873C39.6596 77.0873 41.5201 77.0749 43.2429 77.0501" stroke="#FFD300" stroke-width="5" stroke-linecap="round" stroke-linejoin="round"/>
</svg>
