<svg width="277" height="277" viewBox="0 0 277 277" fill="none" xmlns="http://www.w3.org/2000/svg">
<g opacity="0.07">
<path d="M146.556 164.979C147.308 156.465 152.601 149.673 161.063 148.477C168.474 147.431 179.853 146.529 197.087 146.529C214.32 146.529 225.699 147.431 233.11 148.477C241.572 149.673 246.87 156.465 247.612 164.979C248.278 172.554 248.615 180.154 248.622 187.758C248.622 211.021 236.341 232.79 215.66 243.437C208.749 246.993 202.003 249.601 197.087 249.601C192.17 249.601 185.424 246.993 178.513 243.437C157.827 232.79 145.551 211.021 145.551 187.758C145.551 178.956 146.02 171.096 146.556 164.979Z" stroke="#7B7B7B" stroke-width="11" stroke-linecap="round" stroke-linejoin="round"/>
<path d="M179.046 191.714L196.022 210.952L220.275 174.877M129.814 135.334C139.194 130.61 147.079 123.374 152.587 114.431C158.095 105.489 161.011 95.1921 161.008 84.6894C161.008 53.3814 135.627 28 104.319 28C73.011 28 47.6297 53.3814 47.6297 84.6894C47.6276 95.1921 50.5432 105.489 56.0514 114.431C61.5595 123.374 69.4436 130.61 78.8243 135.334C52.9688 144.28 33.38 166.451 28.3037 193.667C26.6649 202.459 31.7824 209.643 40.6569 210.792C51.4536 212.189 70.5992 213.529 104.319 213.529C109.854 213.529 115.008 213.495 119.78 213.426" stroke="#7B7B7B" stroke-width="11" stroke-linecap="round" stroke-linejoin="round"/>
</g>
</svg>
