<svg width="96" height="97" viewBox="0 0 96 97" fill="none" xmlns="http://www.w3.org/2000/svg">
<circle cx="48" cy="48.5" r="48" fill="white" fill-opacity="0.65"/>
<path d="M31.7169 47.5081C31.4892 47.1138 31.1143 46.826 30.6745 46.708C30.2347 46.5901 29.7661 46.6516 29.3716 46.8791L24.0359 49.9565C23.5364 50.2427 23.1 50.6272 22.7532 51.0867C22.4063 51.5463 22.1562 52.0713 22.018 52.6302C21.7517 53.7383 21.9269 54.9066 22.5063 55.8879L22.9743 56.6972C23.544 57.6824 24.4816 58.401 25.5809 58.6953C26.6802 58.9895 27.8514 58.8353 28.8371 58.2665L34.1685 55.1934C34.364 55.0808 34.5354 54.9307 34.6728 54.7518C34.8103 54.5729 34.9112 54.3687 34.9697 54.1508C35.0282 53.9329 35.0432 53.7056 35.0138 53.4819C34.9845 53.2582 34.9113 53.0425 34.7986 52.847L31.7169 47.5081Z" fill="#A58C09"/>
<path d="M61.2657 67.9879L51.1632 47.9374C51.1386 47.8884 51.1337 47.8318 51.1495 47.7794C51.1653 47.7269 51.2005 47.6824 51.248 47.6551L52.1389 47.1409C52.3343 47.0282 52.5056 46.8781 52.6429 46.6991C52.7803 46.5202 52.8811 46.3159 52.9395 46.098C52.9979 45.8801 53.0128 45.6529 52.9833 45.4292C52.9539 45.2056 52.8807 44.9899 52.7679 44.7945L47.6662 35.9575C47.5535 35.762 47.4035 35.5906 47.2246 35.4531C47.0456 35.3157 46.8414 35.2148 46.6235 35.1563C46.4056 35.0978 46.1783 35.0828 45.9546 35.1121C45.7309 35.1415 45.5152 35.2146 45.3198 35.3274L36.048 40.6728C35.5585 40.9532 35.1296 41.3279 34.786 41.7753C34.4423 42.2226 34.1909 42.7337 34.0462 43.2789C33.9477 43.6194 33.8982 43.9721 33.8991 44.3265C33.9056 45.1423 34.8866 46.7631 35.8441 48.4354C36.8734 50.2333 37.9092 52.072 38.6713 52.5303C39.1565 52.8223 40.013 53.0563 40.7333 53.0563H40.8234L32.3095 71.4753C32.2146 71.6801 32.161 71.9015 32.1518 72.127C32.1426 72.3525 32.1779 72.5776 32.2558 72.7894C32.3336 73.0013 32.4524 73.1957 32.6054 73.3616C32.7585 73.5275 32.9427 73.6615 33.1476 73.7562C33.3524 73.8508 33.5739 73.9042 33.7994 73.9132C34.025 73.9221 34.25 73.8866 34.4618 73.8085C34.6735 73.7305 34.8678 73.6115 35.0335 73.4583C35.1993 73.3051 35.3332 73.1207 35.4276 72.9157L45.4829 51.1639C45.5569 51.0029 45.6792 50.869 45.8328 50.7807L47.8948 49.5914C47.9201 49.577 47.9481 49.5678 47.9771 49.5645C48.0061 49.5612 48.0355 49.5639 48.0634 49.5723C48.0913 49.5808 48.1172 49.5948 48.1395 49.6136C48.1618 49.6324 48.1801 49.6555 48.1932 49.6816L58.1981 69.5389C58.2995 69.7403 58.4397 69.9198 58.6106 70.0671C58.7814 70.2143 58.9796 70.3265 59.1938 70.3972C59.408 70.4678 59.634 70.4956 59.8589 70.4789C60.0839 70.4622 60.3033 70.4014 60.5047 70.2999C60.7062 70.1984 60.8856 70.0583 61.0329 69.8874C61.1801 69.7166 61.2923 69.5184 61.363 69.3042C61.4336 69.09 61.4614 68.864 61.4447 68.6391C61.4281 68.4141 61.3672 68.1947 61.2657 67.9933V67.9879ZM72.7905 33.097L67.8401 24.5379C67.2688 23.5542 66.3311 22.8368 65.2322 22.5427C64.1333 22.2487 62.9626 22.4018 61.9763 22.9686L51.9575 28.7412C51.4679 29.0215 51.0389 29.3962 50.6952 29.8436C50.3516 30.2909 50.1002 30.8021 49.9557 31.3474C49.8135 31.8071 49.7671 32.2912 49.8193 32.7696C50.0061 34.1242 51.2147 36.0326 52.6541 38.554C54.1117 41.1011 55.7572 43.9723 56.6181 44.5938C57.3458 45.1081 58.215 45.3844 59.1061 45.3849C59.8568 45.3852 60.5944 45.1875 61.2443 44.8117L71.2653 39.0359C71.7637 38.7503 72.1993 38.3669 72.5459 37.9087C72.8925 37.4505 73.1429 36.927 73.2821 36.3697C73.5503 35.2563 73.3739 34.0823 72.7905 33.097Z" fill="#008080"/>
</svg>
