<svg width="80" height="81" viewBox="0 0 80 81" fill="none" xmlns="http://www.w3.org/2000/svg">
<g clip-path="url(#clip0_358_681)">
<path d="M39.9609 17.5953C44.7934 17.5953 48.7109 13.6778 48.7109 8.84534C48.7109 4.01285 44.7934 0.0953369 39.9609 0.0953369C35.1284 0.0953369 31.2109 4.01285 31.2109 8.84534C31.2109 13.6778 35.1284 17.5953 39.9609 17.5953Z" fill="#DD7E7E"/>
<path d="M61.6598 43.5173L60.0457 38.1407V38.1236L56.5363 26.4267H56.5285L56.1363 25.1064C55.7058 23.6586 54.8192 22.3886 53.6086 21.4854C52.398 20.5822 50.928 20.0942 49.4176 20.0939H30.6676C29.157 20.0934 27.6867 20.5812 26.4759 21.4845C25.2651 22.3878 24.3787 23.6582 23.9488 25.1064L23.5567 26.4267H23.5473L20.0379 38.1236V38.1407L18.4176 43.5173C17.9301 45.1407 18.777 46.9017 20.3817 47.4454C20.7792 47.5808 21.1999 47.6346 21.6187 47.6037C22.0375 47.5728 22.4458 47.4578 22.8192 47.2655C23.1925 47.0733 23.5233 46.8078 23.7918 46.4849C24.0602 46.162 24.2609 45.7882 24.3817 45.3861L28.3785 32.0657L28.7176 30.9361C28.8166 30.66 29.0095 30.4275 29.2627 30.2793C29.5158 30.1311 29.8129 30.0766 30.1022 30.1254C30.3914 30.1742 30.6542 30.3232 30.8447 30.5462C31.0352 30.7692 31.1412 31.0521 31.1442 31.3454C31.1441 31.43 31.1351 31.5143 31.1176 31.597L24.2848 54.3767C24.1727 54.7499 24.1495 55.1442 24.2169 55.528C24.2844 55.9119 24.4406 56.2746 24.6732 56.5873C24.9057 56.9 25.2082 57.154 25.5564 57.3291C25.9045 57.5041 26.2888 57.5953 26.6785 57.5954H31.2098V75.5157C31.2098 78.0876 32.8551 80.0954 34.9598 80.0954C37.0645 80.0954 38.7098 78.0876 38.7098 75.5157V57.5954H41.2098V75.5157C41.2098 78.0876 42.8551 80.0954 44.9598 80.0954C47.0645 80.0954 48.7098 78.0876 48.7098 75.5157V57.5954H53.3973C53.7871 57.5956 54.1716 57.5045 54.52 57.3296C54.8684 57.1547 55.171 56.9007 55.4037 56.5879C55.6365 56.2752 55.7928 55.9124 55.8604 55.5284C55.9279 55.1445 55.9047 54.7501 55.7926 54.3767L48.9582 31.5939C48.9411 31.5122 48.9327 31.4289 48.9332 31.3454C48.9348 31.0512 49.0401 30.767 49.2306 30.5428C49.4211 30.3186 49.6845 30.1688 49.9746 30.1197C50.2647 30.0706 50.5628 30.1254 50.8164 30.2745C51.0701 30.4235 51.263 30.6572 51.3613 30.9345L51.7004 32.0642L55.6957 45.3845C55.817 45.7861 56.018 46.1591 56.2865 46.4814C56.5551 46.8037 56.8858 47.0686 57.2589 47.2603C57.632 47.4521 58.04 47.5667 58.4583 47.5975C58.8767 47.6282 59.297 47.5744 59.6942 47.4392C61.2988 46.9017 62.1457 45.1407 61.6598 43.5173Z" fill="#DD7E7E"/>
</g>
<defs>
<clipPath id="clip0_358_681">
<rect width="80" height="80" fill="white" transform="translate(0 0.095459)"/>
</clipPath>
</defs>
</svg>
