<svg width="176" height="77" viewBox="0 0 176 77" fill="none" xmlns="http://www.w3.org/2000/svg">
<path d="M5.83082 34.9815C5.83082 33.9082 6.70092 33.0381 7.77426 33.0381H11.1058C12.1792 33.0381 13.0493 33.9082 13.0493 34.9815V50.8066C13.0493 51.88 12.1792 52.7501 11.1058 52.7501H7.77426C6.70092 52.7501 5.83082 51.88 5.83082 50.8066V34.9815Z" fill="#F4F2E4"/>
<path d="M13.0493 26.5144C13.0493 28.431 11.4955 29.9848 9.57889 29.9848C7.66223 29.9848 6.10846 28.431 6.10846 26.5144C6.10846 24.5977 7.66223 23.0439 9.57889 23.0439C11.4955 23.0439 13.0493 24.5977 13.0493 26.5144Z" fill="#FFCC00"/>
<path d="M31.0948 30.2618C31.0948 29.1885 31.9649 28.3184 33.0382 28.3184H36.3698C37.4432 28.3184 38.3133 29.1885 38.3133 30.2618V60.2462C38.3133 61.3196 37.4432 62.1897 36.3698 62.1897H33.0382C31.9649 62.1897 31.0948 61.3196 31.0948 60.2462V30.2618Z" fill="#F4F2E4"/>
<path d="M38.0356 21.5163C38.0356 23.433 36.4819 24.9867 34.5652 24.9867C32.6486 24.9867 31.0948 23.433 31.0948 21.5163C31.0948 19.5997 32.6486 18.0459 34.5652 18.0459C36.4819 18.0459 38.0356 19.5997 38.0356 21.5163Z" fill="#FFCC00"/>
<path d="M43.5888 19.1563C43.5888 18.083 44.4589 17.2129 45.5322 17.2129H48.8638C49.9372 17.2129 50.8073 18.083 50.8073 19.1563V54.9711C50.8073 56.0444 49.9372 56.9145 48.8638 56.9145H45.5322C44.4589 56.9145 43.5888 56.0444 43.5888 54.9711V19.1563Z" fill="#F4F2E4"/>
<path d="M50.8073 10.4109C50.8073 12.3275 49.2535 13.8813 47.3368 13.8813C45.4202 13.8813 43.8664 12.3275 43.8664 10.4109C43.8664 8.49419 45.4202 6.94043 47.3368 6.94043C49.2535 6.94043 50.8073 8.49419 50.8073 10.4109Z" fill="#FFCC00"/>
<path d="M56.3596 33.5938C56.3596 32.5205 57.2297 31.6504 58.303 31.6504H61.6346C62.708 31.6504 63.5781 32.5205 63.5781 33.5938V56.6374C63.5781 57.7108 62.708 58.5809 61.6346 58.5809H58.303C57.2297 58.5809 56.3596 57.7108 56.3596 56.6374V33.5938Z" fill="#F4F2E4"/>
<path d="M63.3004 25.1257C63.3004 27.0423 61.7467 28.5961 59.83 28.5961C57.9134 28.5961 56.3596 27.0423 56.3596 25.1257C56.3596 23.209 57.9134 21.6553 59.83 21.6553C61.7467 21.6553 63.3004 23.209 63.3004 25.1257Z" fill="#FFCC00"/>
<path d="M18.324 28.0411C18.324 26.9678 19.1941 26.0977 20.2674 26.0977H23.599C24.6724 26.0977 25.5425 26.9678 25.5425 28.0411V50.8071C25.5425 51.8804 24.6724 52.7505 23.599 52.7505H20.2674C19.1941 52.7505 18.324 51.8804 18.324 50.8071V28.0411Z" fill="#F4F2E4"/>
<path d="M25.5425 58.9968C25.5425 60.9134 23.9887 62.4672 22.072 62.4672C20.1554 62.4672 18.6016 60.9134 18.6016 58.9968C18.6016 57.0801 20.1554 55.5264 22.072 55.5264C23.9887 55.5264 25.5425 57.0801 25.5425 58.9968Z" fill="#FFCC00"/>
<path d="M96.8084 26.86C96.8084 28.34 96.5151 29.4933 95.9284 30.32C95.3551 31.1333 94.5418 31.7 93.4884 32.02C92.4351 32.34 91.1951 32.5 89.7684 32.5H86.6684V21.24H89.7684C91.1951 21.24 92.4351 21.4533 93.4884 21.88C94.5418 22.2933 95.3551 22.9133 95.9284 23.74C96.5151 24.5667 96.8084 25.6067 96.8084 26.86ZM88.6884 30.82H90.3484C91.2284 30.82 91.9884 30.72 92.6284 30.52C93.2684 30.3067 93.7618 29.9133 94.1084 29.34C94.4551 28.7667 94.6284 27.9333 94.6284 26.84C94.6284 25.5467 94.2418 24.5867 93.4684 23.96C92.7084 23.32 91.6684 23 90.3484 23H88.6884V30.82ZM100.617 30.86H106.837V32.5H98.5974V21.24H106.637V23H100.617V25.96H105.237V27.64H100.617V30.86ZM116.417 21.24H118.537V32.5H114.657L110.797 22.14H110.757V32.5H108.657V21.24H112.257L116.377 31.6H116.417V21.24ZM122.906 32.5H120.846V21.24H122.906V25.98H128.246V21.24H130.286V32.5H128.246V27.56H122.906V32.5ZM131.824 32.5L135.424 21.24H138.764L142.464 32.5H140.284L139.324 29.32H134.944L133.984 32.5H131.824ZM137.124 22.1L135.424 27.74H138.844L137.124 22.1ZM143.932 32.5V21.24H147.492L150.132 31.62H150.172L152.792 21.24H156.332V32.5H154.212L154.352 22.16H154.332L151.632 32.5H148.632L145.972 22.16H145.932L146.052 32.5H143.932ZM173.675 32.54C172.741 32.1533 171.835 31.68 170.955 31.12C170.381 31.64 169.735 32.0333 169.015 32.3C168.308 32.5533 167.588 32.68 166.855 32.68C166.121 32.68 165.448 32.5533 164.835 32.3C164.221 32.0467 163.721 31.6733 163.335 31.18C162.961 30.6867 162.775 30.0667 162.775 29.32C162.775 28.7733 162.881 28.32 163.095 27.96C163.321 27.5867 163.581 27.2867 163.875 27.06C164.181 26.82 164.468 26.64 164.735 26.52C165.015 26.3867 165.215 26.2933 165.335 26.24C165.268 26.1333 165.135 25.9667 164.935 25.74C164.735 25.5 164.548 25.2 164.375 24.84C164.201 24.48 164.115 24.0733 164.115 23.62C164.115 23.06 164.261 22.5933 164.555 22.22C164.861 21.8467 165.248 21.5667 165.715 21.38C166.195 21.18 166.695 21.08 167.215 21.08C167.748 21.0667 168.248 21.1467 168.715 21.32C169.195 21.4933 169.581 21.7667 169.875 22.14C170.181 22.5133 170.335 22.98 170.335 23.54C170.335 24.0067 170.221 24.42 169.995 24.78C169.768 25.14 169.501 25.4467 169.195 25.7C168.888 25.94 168.608 26.1267 168.355 26.26C168.101 26.3933 167.948 26.4733 167.895 26.5C168.041 26.6867 168.328 26.9867 168.755 27.4C169.195 27.8133 169.695 28.2467 170.255 28.7C170.361 28.5533 170.475 28.3333 170.595 28.04C170.728 27.7333 170.795 27.4133 170.795 27.08C170.795 26.7467 170.661 26.4533 170.395 26.2L172.095 25.08C172.175 25.1733 172.281 25.38 172.415 25.7C172.561 26.0067 172.675 26.3867 172.755 26.84C172.835 27.28 172.828 27.76 172.735 28.28C172.655 28.8 172.435 29.3133 172.075 29.82C172.408 30.0333 172.748 30.24 173.095 30.44C173.455 30.6267 173.895 30.8267 174.415 31.04L173.675 32.54ZM166.775 25.56C166.948 25.4667 167.175 25.34 167.455 25.18C167.735 25.0067 167.988 24.8067 168.215 24.58C168.441 24.3533 168.568 24.1067 168.595 23.84C168.621 23.5333 168.548 23.2867 168.375 23.1C168.201 22.9 167.981 22.7667 167.715 22.7C167.448 22.62 167.175 22.6133 166.895 22.68C166.628 22.7333 166.401 22.8533 166.215 23.04C166.028 23.2267 165.941 23.4867 165.955 23.82C165.968 24.34 166.241 24.92 166.775 25.56ZM169.375 29.98C168.815 29.5533 168.288 29.1067 167.795 28.64C167.301 28.16 166.848 27.6733 166.435 27.18C166.021 27.3933 165.641 27.64 165.295 27.92C164.961 28.1867 164.795 28.5733 164.795 29.08C164.795 29.5733 164.955 29.9733 165.275 30.28C165.608 30.5867 166.021 30.7867 166.515 30.88C167.008 30.96 167.515 30.9267 168.035 30.78C168.555 30.6333 169.001 30.3667 169.375 29.98ZM91.2084 59.72C90.1151 59.72 89.1551 59.5 88.3284 59.06C87.5151 58.62 86.8884 57.9733 86.4484 57.12C86.0084 56.2533 85.8018 55.1933 85.8284 53.94C85.8418 52.6733 86.0884 51.6 86.5684 50.72C87.0618 49.84 87.7351 49.1733 88.5884 48.72C89.4418 48.2667 90.4284 48.04 91.5484 48.04C93.0818 48.04 94.2684 48.3733 95.1084 49.04C95.9484 49.7067 96.5084 50.6733 96.7884 51.94L94.8284 52.22C94.6284 51.38 94.2151 50.7933 93.5884 50.46C92.9751 50.1267 92.2951 49.96 91.5484 49.96C90.2684 49.96 89.3284 50.3067 88.7284 51C88.1418 51.6933 87.8418 52.62 87.8284 53.78C87.8284 55.06 88.1684 56.0467 88.8484 56.74C89.5284 57.42 90.5018 57.76 91.7684 57.76C92.5418 57.76 93.2418 57.58 93.8684 57.22C94.4951 56.8467 94.9018 56.2533 95.0884 55.44H92.6084V53.94H97.0084V59.5H95.6284L95.1684 57.54H95.1284C94.9951 57.8733 94.7618 58.2067 94.4284 58.54C94.1084 58.8733 93.6818 59.1533 93.1484 59.38C92.6151 59.6067 91.9684 59.72 91.2084 59.72ZM98.9894 59.5V48.24H103.129C104.583 48.24 105.716 48.4867 106.529 48.98C107.343 49.46 107.749 50.3133 107.749 51.54C107.749 52.46 107.529 53.2067 107.089 53.78C106.649 54.34 106.016 54.62 105.189 54.62C105.656 54.62 106.003 54.7267 106.229 54.94C106.469 55.14 106.636 55.3933 106.729 55.7C106.823 56.0067 106.889 56.3267 106.929 56.66C106.969 56.9933 107.016 57.2933 107.069 57.56C107.136 57.8133 107.256 57.9933 107.429 58.1C107.616 58.2067 107.903 58.1867 108.289 58.04V59.22C108.036 59.4333 107.736 59.5733 107.389 59.64C107.043 59.72 106.703 59.7 106.369 59.58C106.036 59.46 105.756 59.2267 105.529 58.88C105.303 58.52 105.189 58.02 105.189 57.38C105.189 56.7933 105.156 56.3267 105.089 55.98C105.023 55.62 104.856 55.3533 104.589 55.18C104.323 54.9933 103.909 54.88 103.349 54.84C102.789 54.7867 102.016 54.7867 101.029 54.84V59.5H98.9894ZM101.029 53.36H103.049C103.703 53.36 104.243 53.3333 104.669 53.28C105.096 53.2133 105.409 53.0667 105.609 52.84C105.823 52.6 105.929 52.22 105.929 51.7C105.929 51.1267 105.803 50.7133 105.549 50.46C105.296 50.2067 104.923 50.0533 104.429 50C103.949 49.9333 103.356 49.9 102.649 49.9H101.029V53.36ZM112.043 57.86H118.263V59.5H110.023V48.24H118.063V50H112.043V52.96H116.663V54.64H112.043V57.86ZM123.106 59.5V55.52L119.266 48.24H121.546L124.166 53.74L126.746 48.24H129.026L125.126 55.5V59.5H123.106Z" fill="white"/>
</svg>
