<svg width="25" height="25" viewBox="0 0 25 25" fill="none" xmlns="http://www.w3.org/2000/svg">
<path d="M21.0557 12.6741C21.0557 10.8149 20.8719 9.03273 20.535 7.38103C20.1138 5.31641 19.9043 4.28513 18.6943 3.34424C17.4832 2.40232 16.0935 2.40232 13.3139 2.40232L11.3356 2.40232C8.55606 2.40232 7.16527 2.40232 5.95526 3.34424C4.74525 4.28513 4.53468 5.31641 4.11456 7.38103C3.76528 9.12365 3.59083 10.8968 3.59379 12.6741C3.59379 14.5332 3.77765 16.3154 4.11456 17.9671C4.53571 20.0317 4.74525 21.063 5.95526 22.0039C7.1663 22.9458 8.55606 22.9458 11.3356 22.9458L13.3139 22.9458C16.0935 22.9458 17.4843 22.9458 18.6943 22.0039C19.9043 21.063 20.1149 20.0317 20.535 17.9671C20.8719 16.3154 21.0557 14.5332 21.0557 12.6741Z" stroke="#F0F0F0" stroke-width="1.54076" stroke-linecap="round" stroke-linejoin="round"/>
<path d="M12.6459 8.60467C13.2684 8.75669 13.7142 9.56816 14.6088 11.1901C15.5816 12.9548 16.0674 13.8371 15.8794 14.551C15.818 14.7889 15.707 15.0112 15.5538 15.2032C15.107 15.7559 14.1795 15.7559 12.3244 15.7559C10.4693 15.7559 9.54178 15.7559 9.09496 15.2032C8.94396 15.0163 8.832 14.7924 8.76934 14.551C8.58137 13.8371 9.06722 12.9548 10.04 11.1901C10.9336 9.56714 11.3804 8.75669 12.0029 8.60467C12.2145 8.55331 12.4343 8.55331 12.6459 8.60467Z" stroke="#F0F0F0" stroke-width="1.54076" stroke-linecap="round" stroke-linejoin="round"/>
</svg>
