<svg width="25" height="25" viewBox="0 0 25 25" fill="none" xmlns="http://www.w3.org/2000/svg">
<path d="M12.3259 21.0557C14.1851 21.0557 15.9673 20.8719 17.619 20.535C19.6836 20.1138 20.7149 19.9043 21.6558 18.6943C22.5977 17.4832 22.5977 16.0935 22.5977 13.3139V11.3356C22.5977 8.55606 22.5977 7.16527 21.6558 5.95526C20.7149 4.74525 19.6836 4.53468 17.619 4.11456C15.8763 3.76528 14.1032 3.59083 12.3259 3.59379C10.4668 3.59379 8.68461 3.77765 7.03291 4.11456C4.96829 4.53571 3.93701 4.74525 2.99612 5.95526C2.0542 7.1663 2.0542 8.55606 2.0542 11.3356L2.0542 13.3139C2.0542 16.0935 2.0542 17.4843 2.99612 18.6943C3.93701 19.9043 4.96829 20.1149 7.03291 20.535C8.68461 20.8719 10.4668 21.0557 12.3259 21.0557Z" stroke="#BBBBBB" stroke-opacity="0.75" stroke-width="1.54076" stroke-linecap="round" stroke-linejoin="round"/>
<path d="M16.3953 12.6459C16.2433 13.2684 15.4318 13.7142 13.8099 14.6088C12.0452 15.5816 11.1629 16.0674 10.449 15.8794C10.2111 15.818 9.98885 15.707 9.79676 15.5538C9.24414 15.107 9.24414 14.1795 9.24414 12.3244C9.24414 10.4693 9.24414 9.54178 9.79676 9.09496C9.98371 8.94396 10.2076 8.832 10.449 8.76934C11.1629 8.58137 12.0452 9.06722 13.8099 10.04C15.4329 10.9336 16.2433 11.3804 16.3953 12.0029C16.4467 12.2145 16.4467 12.4343 16.3953 12.6459Z" stroke="#BBBBBB" stroke-opacity="0.75" stroke-width="1.54076" stroke-linecap="round" stroke-linejoin="round"/>
</svg>
