<svg width="25" height="25" viewBox="0 0 25 25" fill="none" xmlns="http://www.w3.org/2000/svg">
<path d="M12.3264 21.0557C14.1856 21.0557 15.9678 20.8719 17.6195 20.535C19.6841 20.1138 20.7154 19.9043 21.6563 18.6943C22.5982 17.4832 22.5982 16.0935 22.5982 13.3139V11.3356C22.5982 8.55606 22.5982 7.16527 21.6563 5.95526C20.7154 4.74525 19.6841 4.53468 17.6195 4.11456C15.8768 3.76528 14.1037 3.59083 12.3264 3.59379C10.4672 3.59379 8.6851 3.77765 7.0334 4.11456C4.96878 4.53571 3.9375 4.74525 2.99661 5.95526C2.05469 7.1663 2.05469 8.55606 2.05469 11.3356L2.05469 13.3139C2.05469 16.0935 2.05469 17.4843 2.99661 18.6943C3.9375 19.9043 4.96878 20.1149 7.0334 20.535C8.6851 20.8719 10.4672 21.0557 12.3264 21.0557Z" stroke="#FFD300" stroke-width="1.54076" stroke-linecap="round" stroke-linejoin="round"/>
<path d="M16.3973 12.6449C16.2453 13.2674 15.4338 13.7132 13.8119 14.6079C12.0472 15.5806 11.1649 16.0664 10.451 15.8785C10.2131 15.817 9.9908 15.7061 9.79871 15.5529C9.24609 15.106 9.24609 14.1785 9.24609 12.3234C9.24609 10.4683 9.24609 9.5408 9.79871 9.09398C9.98566 8.94299 10.2096 8.83102 10.451 8.76837C11.1649 8.58039 12.0472 9.06625 13.8119 10.039C15.4348 10.9326 16.2453 11.3794 16.3973 12.0019C16.4486 12.2135 16.4486 12.4333 16.3973 12.6449Z" stroke="#FFD300" stroke-width="1.54076" stroke-linecap="round" stroke-linejoin="round"/>
</svg>
